<svg version="1.2" xmlns="http://www.w3.org/2000/svg" viewBox="0 0 241 348" width="241" height="348">
	<title>OnboardingCard3</title>
	<defs>
		<clipPath clipPathUnits="userSpaceOnUse" id="cp1">
			<path d="m0 0h241v348h-241z"/>
		</clipPath>
		<linearGradient id="g1" x2="1" gradientUnits="userSpaceOnUse" gradientTransform="matrix(228.152,-277.268,363.001,298.698,-15.946,346.822)">
			<stop offset=".321" stop-color="#c0eef1" stop-opacity="1"/>
			<stop offset=".581" stop-color="#8fc3d0" stop-opacity="1"/>
			<stop offset=".894" stop-color="#2a9faf" stop-opacity=".79"/>
		</linearGradient>
		<linearGradient id="g2" x2="1" gradientUnits="userSpaceOnUse" gradientTransform="matrix(319.067,318.645,-182.292,182.533,-91.634,63.504)">
			<stop offset="0" stop-color="#cbf3ff"/>
			<stop offset=".359" stop-color="#39b8c9"/>
			<stop offset=".684" stop-color="#089eb3"/>
			<stop offset="1" stop-color="#68a4b7"/>
		</linearGradient>
		<linearGradient id="g3" x2="1" gradientUnits="userSpaceOnUse" gradientTransform="matrix(228.152,-277.268,365.961,301.134,14.567,318.19)">
			<stop offset=".321" stop-color="#a2f4ff" stop-opacity="1"/>
			<stop offset=".685" stop-color="#68d3e9" stop-opacity=".94"/>
			<stop offset=".894" stop-color="#009bb0" stop-opacity=".79"/>
		</linearGradient>
		<linearGradient id="g4" x2="1" gradientUnits="userSpaceOnUse" gradientTransform="matrix(252.472,-211.805,279.654,333.349,5.84,278.519)">
			<stop offset=".181" stop-color="#ffffff" stop-opacity=".35"/>
			<stop offset=".533" stop-color="#ffffff" stop-opacity="0"/>
		</linearGradient>
		<linearGradient id="g5" x2="1" gradientUnits="userSpaceOnUse" gradientTransform="matrix(1.819,162.55,-302.819,3.389,62.635,66.717)">
			<stop offset=".302" stop-color="#c5e7ee" stop-opacity="1"/>
			<stop offset=".993" stop-color="#7fb8c0" stop-opacity=".63"/>
		</linearGradient>
		<linearGradient id="g6" x2="1" gradientUnits="userSpaceOnUse" gradientTransform="matrix(81.887,-145.775,163.041,91.586,139.944,232.133)">
			<stop offset="0" stop-color="#ffffff" stop-opacity="1"/>
			<stop offset=".645" stop-color="#ffffff" stop-opacity=".57"/>
		</linearGradient>
		<linearGradient id="g7" x2="1" gradientUnits="userSpaceOnUse" gradientTransform="matrix(0,182,-241,0,120.5,166)">
			<stop offset="0" stop-color="#089eb2" stop-opacity="0"/>
			<stop offset=".216" stop-color="#089eb2" stop-opacity=".29"/>
			<stop offset=".402" stop-color="#089eb2" stop-opacity=".62"/>
			<stop offset="1" stop-color="#089eb2" stop-opacity="1"/>
		</linearGradient>
		<clipPath clipPathUnits="userSpaceOnUse" id="cp2">
			<path d="m53.5 250.75h133v16h-133zm13.16 15.24v-5.68h-8.84v4.82q0 0.42 0.22 0.64 0.23 0.22 0.64 0.22zm-7.25-1.44v-2.8h5.65v2.8zm7.25-13.07h-1.6v3.47h-3.01v1.44h3.01v3.3h1.6zm-11.42 7.81q2.09-0.27 3.53-1.03 1.44-0.76 2.16-1.85 0.72-1.11 0.72-2.39v-1.87h-6.46v1.44h4.86v0.43q0 1.51-1.31 2.53-1.31 1.02-4.02 1.35zm23.62 6.36q1.1-0.8 1.1-2.09 0-1.31-1.12-2.11-1.1-0.8-3.65-0.8-2.54 0-3.66 0.8-1.1 0.8-1.1 2.11 0 1.29 1.1 2.09 1.1 0.8 3.66 0.8 2.56 0 3.67-0.8zm-6.15-1.02q-0.68-0.37-0.69-1.07 0.01-0.71 0.68-1.09 0.69-0.38 2.49-0.38 1.81 0 2.48 0.38 0.69 0.38 0.69 1.09 0 0.7-0.69 1.07-0.68 0.38-2.48 0.38-1.79 0-2.48-0.38zm9.01-4.75v-1.44h-13.12v1.44zm-11.3-6.71h6.28q-1.19 0.87-3.08 1.6-1.88 0.74-3.93 1.12l0.51 1.38q2.59-0.53 4.82-1.46 2 1.25 5.4 1.48l0.23-1.49q-1.49-0.1-2.4-0.24-0.9-0.16-1.6-0.51 1.36-0.74 2.27-1.57 0.91-0.85 1.23-1.75h-9.73zm24.88 12.82v-1.44h-7.56v-3.12h-1.6v3.7q0 0.41 0.22 0.64 0.22 0.22 0.64 0.22zm-0.48-14.51h-1.6v6.88q-1.84 0.32-4.42 0.51v-1.44h2.18v-1.44h-5.23v-2.42h5.23v-1.44h-6.83v4.44q0 0.41 0.22 0.64 0.23 0.22 0.64 0.22h2.19v1.55q-2.4 0.11-4.36 0.11l0.17 1.44q2.32 0 5.11-0.17 2.8-0.18 5.1-0.63v2.2h1.6zm17.28 0h-1.6v14.12h1.6zm-11.26 11.09q3.29-0.64 4.85-2.43 1.56-1.79 1.56-5.14v-2.52h-6.46v1.44h4.86v1.08q0 1.97-0.56 3.22-0.54 1.25-1.71 1.95-1.15 0.71-3.06 1.01zm24.39-10.9h-1.6v2.04h-6.08v-2.04h-1.6v5.8q0 0.41 0.22 0.64 0.22 0.22 0.64 0.22h8.42zm-7.68 5.25v-1.87h6.08v1.87zm9.61 4.08v-1.44h-13.12v1.44h5.76v4.81h1.6v-4.81zm16.31-9.52h-1.6v14.13h1.6zm-11.27 11.08q3.3-0.64 4.85-2.43 1.57-1.79 1.57-5.13v-2.53h-6.46v1.44h4.86v1.09q0 1.96-0.56 3.21-0.54 1.25-1.71 1.95-1.15 0.71-3.06 1.01zm25.02 3.43v-1.44h-7.56v-3.12h-1.6v3.69q0 0.42 0.22 0.64 0.22 0.23 0.64 0.23zm-0.48-14.52h-1.6v6.72q-2.41 0.42-5.38 0.58v-3.06h-1.6v3.16q-1.77 0.06-3.4 0.06l0.17 1.44q2.32 0 5.11-0.18 2.8-0.17 5.1-0.62v2.35h1.6v-4.73h2.29v-1.44h-2.29zm-10.62 0.73v1.44h5.5q0 0.95-0.13 1.78-0.13 0.81-0.37 1.77l1.6 0.21q0.28-1.15 0.4-2.37 0.13-1.23 0.18-2.83zm19.07 8.53q0.8-1.09 0.91-2.82h1.07v7.04h1.6v-13.32h-1.6v4.84h-1.07q-0.14-1.69-0.94-2.75-0.79-1.05-2.31-1.05-1.68 0-2.49 1.31-0.8 1.29-0.8 3.25 0 1.96 0.8 3.28 0.81 1.31 2.49 1.31 1.54 0 2.34-1.09zm-3.62-1.18q-0.41-0.85-0.41-2.32 0-1.46 0.43-2.29 0.43-0.83 1.26-0.83 0.84 0 1.25 0.83 0.43 0.83 0.43 2.29 0 1.47-0.43 2.32-0.41 0.83-1.25 0.83-0.84 0-1.28-0.83zm10.37-8.08h-1.6v14.12h1.6zm13.76 0h-1.6v4.76h-3.3v1.44h3.3v7.93h1.6zm-11.15 10.61q1.52-1.44 2.56-3.09 0.43 1.12 1.52 1.97 1.09 0.85 2.88 1.47l0.64-1.49q-1.73-0.57-2.69-1.31-0.94-0.73-1.57-2.09 1.01-2.18 1.38-5.25l-1.54-0.16q-0.22 2.03-0.73 3.57-0.5 1.52-1.38 2.81-0.86 1.3-2.26 2.61z"/>
		</clipPath>
	</defs>
	<style>
		.s0 { opacity: .3;fill: #ffffff } 
		.s1 { opacity: .3;fill: none;stroke: #ffffff } 
		.s2 { opacity: .5;fill: url(#g1) } 
		.s3 { fill: url(#g2) } 
		.s4 { opacity: .3;fill: url(#g3);stroke: url(#g4) } 
		.s5 { fill: url(#g5) } 
		.s6 { fill: url(#g6) } 
		.s7 { fill: url(#g7) } 
		.s8 { fill: #fbf9f4 } 
		.s9 { fill: none;stroke: #fbf9f4;stroke-linecap: round;stroke-linejoin: round } 
	</style>
	<g>
		<path class="s0" d="m0 20c0-11 9-20 20-20h201c11 0 20 9 20 20v308c0 11-9 20-20 20h-201c-11 0-20-9-20-20z"/>
		<path class="s1" d="m0.5 20c0-10.8 8.7-19.5 19.5-19.5h201c10.8 0 19.5 8.7 19.5 19.5v308c0 10.8-8.7 19.5-19.5 19.5h-201c-10.8 0-19.5-8.7-19.5-19.5z"/>
	</g>
	<g id="Clip-Path" clip-path="url(#cp1)">
		<g>
			<g style="opacity: .5">
				<path fill-rule="evenodd" class="s2" d="m29.6 49l6.6 1.1 6.8 1.9 135.4 49.3 6 2.4 5.7 3 5.4 3.7 5 4.2 4.8 4.6 4.3 5 3.8 5.4 3.3 5.6 2.8 5.9 2.2 5.9 1.4 6.1 0.8 6.2 2.4 133.7-0.8 6.5-1.6 6-2.3 5.5-3.1 4.9-3.7 4.2-4.3 3.5-4.9 2.7-5.5 1.9-5.8 1h-6.4l-6.6-1-149.7-31.9-7.3-1.7-7.7-3.3-7.3-4.8-6.6-4.9-6-5.7-5.4-6.3-4.6-6.8-3.9-7.1-2.9-7.5-2-7.8-1.1-7.8v-7.8l11.9-144 1-6.2 1.8-5.7 2.7-5 3.4-4.3 4.1-3.7 4.7-2.9 5.2-2.2 5.6-1.4 6.1-0.6zm196.7 237.1l-2.4-126.8 2.4 133.7z"/>
				<path fill-rule="evenodd" class="s3" d="m18.6 36.7l-1 6.3-11.3 155.3v7.8l1 7.8 2.1 7.7 2.9 7.5 3.9 7.2 4.6 6.8 5.4 6.3 6 5.7 6.6 4.9 7 4.2 7.5 3.3 7.8 2.3 160 36.2 6.7 1h6.3l5.9-1 5.5-1.9-5.4 3.2-4.9 2.8-5.2 3 5.2-3 4.9-2.8 5.4-3.2 4.9-2.7-10.3 5.9-4.9 2.8-5.2 3-9.8 5.7-9.6 5.5-4.8 2.7-5.3 1.9-5.8 1-6.1 0.1-6.5-0.9-154.4-32.6-7.5-2.1-7.2-3.1-6.7-3.9-6.3-4.6-5.7-5.4-5.1-5.9-4.3-6.5-3.6-6.8-2.8-7.2-1.8-7.3-0.9-7.5 0.1-7.5 13.1-150.2 1-6 1.9-5.6 9.5-13.5 3.4-4.3 7.1-8.9 7.2-9.1 7.4-9.4-3.4 4.4-2.7 5z"/>
				<path class="s4" d="m265.7 270.8l-0.8 6.4-1.6 6-2.3 5.4-3 4.8-3.7 4.1-4.2 3.5-4.9 2.7-5.3 1.9-5.8 0.9h-6.2l-6.7-1-160-36.2-7.2-1.7-7.7-3.2-7.3-4.8-6.5-4.9-6-5.6-5.3-6.3-4.6-6.7-3.8-7.2-3-7.4-2-7.7-1-7.7v-7.8l11.3-155.3 0.9-6.2 1.9-5.5 2.6-5 3.4-4.2 4-3.6 4.6-2.9 5.1-2.1 5.6-1.4 6-0.6 6.2 0.2 6.6 1.1 6.7 1.9 139.9 47.9 5.9 2.4 5.6 3.1 5.4 3.6 5.1 4.2 4.6 4.6 4.3 4.9 3.8 5.4 3.3 5.6 2.8 5.8 2.1 5.9 1.5 6 0.8 6.1z"/>
				<g>
					<path fill-rule="evenodd" class="s5" d="m225 139.9l-84.6 62.7-1.5 0.9-1.6 0.7-1.7 0.4-1.8 0.1-1.8-0.1-1.9-0.3-1.8-0.6-1.8-0.8-1.8-1.1-5.3 6.8-1.7-1-1.7-1.3-1.6-1.4-1.4-1.7-39.2-50-1.3-1.8-1-1.8-0.8-1.9-0.5-2-0.3-1.8v-1.9l0.2-1.7 0.4-1.7 0.7-1.6 1-1.4 7.4-8-6.3 6.8-1.1 1.2 6.3-6.7-1 1.4-0.7 1.6-0.4 1.7-0.2 1.7v1.9l0.3 1.9 0.5 1.9 0.8 2 1 1.9 1.3 1.8 39.8 50.7 1.5 1.7 1.6 1.4 1.7 1.3-5.3 6.8 1.8 0.8 1.9 0.6 1.8 0.3 1.8 0.1 1.8-0.2 1.7-0.4 1.6-0.6 1.4-0.9 84.4-62.6zm-145.4-12.2l-1.2 1.2-6.3 6.8z"/>
					<path fill-rule="evenodd" class="s6" d="m224.3 122.4l1.2 1.6 0.9 1.6 0.7 1.7 0.6 1.7 0.3 1.6 0.2 1.6v1.6l-0.3 1.4-0.4 1.4-0.6 1.2-0.8 1.1-1.1 1-84.6 62.7-1.5 0.9-1.6 0.7-1.7 0.4-1.8 0.1-1.8-0.1-1.9-0.3-1.8-0.6-1.8-0.8-1.8-1.1-1.7-1.3-1.6-1.4-1.5-1.7-39.8-50.7-1.3-1.8-1-1.9-0.8-2-0.5-1.9-0.3-1.9v-1.9l0.2-1.7 0.4-1.7 0.7-1.6 5.1-4.6-1.6 0.9-1.4 1-1.1 1.3-1 1.4 5.1-4.6 1.7-0.5 1.8-0.3 1.8-0.1 1.9 0.2 1.9 0.4 1.8 0.7 1.9 0.8 1.8 1.1 1.6 1.3 1.6 1.4 1.5 1.7 28.9 36.8 76.4-52.6 1.2-0.6 1.3-0.5 1.4-0.2h1.5l1.5 0.2 1.6 0.4 1.5 0.7 1.6 0.8 1.4 1 1.5 1.1 1.4 1.4z"/>
				</g>
			</g>
		</g>
	</g>
	<path class="s7" d="m0 166h241v162c0 11-9 20-20 20h-201c-11 0-20-9-20-20z"/>
	<path class="s8" d="m58.7 266q-0.4 0-0.7-0.2-0.2-0.3-0.2-0.7v-4.8h8.9v5.7zm6.3-1.4v-2.8h-5.6v2.8zm1.6-4.9h-1.6v-3.3h-3v-1.4h3v-3.5h1.6zm-11.9-1.8q2.7-0.3 4-1.4 1.3-1 1.3-2.5v-0.4h-4.9v-1.5h6.5v1.9q0 1.3-0.7 2.4-0.7 1.1-2.2 1.9-1.4 0.7-3.5 1zm20.4 8.5q-2.5 0-3.6-0.8-1.1-0.8-1.1-2.1 0-1.3 1.1-2.1 1.1-0.8 3.6-0.8 2.6 0 3.7 0.8 1.1 0.8 1.1 2.1 0 1.3-1.1 2.1-1.1 0.8-3.7 0.8zm0-1.4q1.8 0 2.5-0.4 0.7-0.4 0.7-1.1 0-0.7-0.7-1-0.7-0.4-2.5-0.4-1.8 0-2.5 0.4-0.6 0.3-0.6 1 0 0.7 0.7 1.1 0.6 0.4 2.4 0.4zm-6.6-5.1v-1.5h13.2v1.5zm1.8-8.2h9.7q-0.3 0.9-1.2 1.8-0.9 0.8-2.3 1.5 0.7 0.4 1.6 0.5 0.9 0.2 2.4 0.3l-0.2 1.5q-3.4-0.3-5.4-1.5-2.2 0.9-4.8 1.5l-0.5-1.4q2-0.4 3.9-1.1 1.9-0.8 3.1-1.6h-6.3zm16.6 14.2q-0.5 0-0.7-0.2-0.2-0.2-0.2-0.6v-3.7h1.6v3.1h7.6v1.4zm7.8-4h-1.6v-2.2q-2.3 0.4-5.1 0.6-2.8 0.2-5.1 0.2l-0.2-1.5q2 0 4.4-0.1v-1.5h-2.2q-0.4 0-0.7-0.3-0.2-0.2-0.2-0.6v-4.4h6.9v1.4h-5.3v2.4h5.3v1.5h-2.2v1.4q2.6-0.2 4.4-0.5v-6.9h1.6zm17.3 3.7h-1.6v-14.1h1.6zm-11.8-4.5q1.9-0.3 3.1-1 1.1-0.7 1.7-1.9 0.5-1.3 0.5-3.2v-1.1h-4.8v-1.5h6.4v2.6q0 3.3-1.5 5.1-1.6 1.8-4.9 2.4zm24.9-2.8h-8.4q-0.4 0-0.7-0.3-0.2-0.2-0.2-0.6v-5.8h1.6v2h6.1v-2h1.6zm-1.6-1.4v-1.9h-6.1v1.9zm-2.2 4.1v4.8h-1.6v-4.8h-5.8v-1.5h13.2v1.5zm22 4.6h-1.6v-14.1h1.6zm-11.7-4.5q1.9-0.3 3-1 1.2-0.7 1.7-1.9 0.6-1.3 0.6-3.2v-1.1h-4.9v-1.5h6.5v2.6q0 3.3-1.6 5.1-1.5 1.8-4.8 2.4zm17.2 4.8q-0.4 0-0.6-0.2-0.3-0.2-0.3-0.6v-3.7h1.6v3.1h7.6v1.4zm7.8-10.2h2.3v1.4h-2.3v4.8h-1.6v-2.4q-2.3 0.5-5.1 0.7-2.8 0.1-5.1 0.1l-0.2-1.4q1.7 0 3.4-0.1v-3.1h1.6v3q3-0.1 5.4-0.5v-6.8h1.6zm-3.4-3.5q-0.1 1.6-0.2 2.8-0.1 1.2-0.4 2.4l-1.6-0.2q0.2-1 0.4-1.8 0.1-0.8 0.1-1.8h-5.5v-1.4zm9.5 9.6q-1.6 0-2.4-1.3-0.8-1.3-0.8-3.3 0-1.9 0.8-3.2 0.8-1.3 2.4-1.3 1.6 0 2.4 1 0.8 1.1 0.9 2.8h1.1v-4.9h1.6v13.3h-1.6v-7h-1.1q-0.1 1.7-0.9 2.8-0.8 1.1-2.4 1.1zm0-1.4q0.9 0 1.3-0.9 0.4-0.8 0.4-2.3 0-1.4-0.4-2.3-0.4-0.8-1.3-0.8-0.8 0-1.2 0.8-0.4 0.9-0.4 2.3 0 1.5 0.4 2.3 0.4 0.9 1.2 0.9zm9.1 5.2h-1.6v-14.1h1.6zm13.8 0h-1.6v-8h-3.3v-1.4h3.3v-4.8h1.6zm-12.3-4.4q1.3-1.4 2.2-2.7 0.9-1.3 1.4-2.8 0.5-1.5 0.7-3.5l1.6 0.1q-0.4 3.1-1.4 5.3 0.6 1.3 1.6 2.1 0.9 0.7 2.6 1.3l-0.6 1.5q-1.8-0.7-2.9-1.5-1.1-0.9-1.5-2-1 1.7-2.6 3.1z"/>
	<g id="Clip-Path" clip-path="url(#cp2)">
		<path class="s8" d="m57.8 260.3v-0.2h-0.2v0.2zm8.8 0h0.3v-0.2h-0.3zm0 5.6v0.3h0.3v-0.3zm-7.3-1.4h-0.2v0.3h0.2zm5.7 0v0.2h0.2v-0.2zm0-2.8h0.3v-0.3h-0.3zm-5.6 0v-0.2h-0.3v0.2zm7.3-10.3h0.2v-0.2h-0.2zm0 8.2v0.2h0.2v-0.2zm-1.6 0h-0.2v0.2h0.2zm0-3.3h0.3v-0.2h-0.3zm-3 0h-0.2v0.2h0.2zm0-1.4v-0.2h-0.2v0.2zm3 0v0.3h0.2v-0.3zm0-3.5v-0.2h-0.2v0.2zm-10.4 6.4v-0.2h-0.3l0.1 0.3zm5.3-4.3h0.3v-0.2h-0.3zm-4.8 0h-0.3v0.2h0.3zm0-1.4v-0.3h-0.3v0.3zm6.5 0h0.2v-0.3h-0.2zm-6.4 7.2l-0.3 0.1 0.1 0.1h0.2zm3.4 6.5q-0.3 0-0.4-0.2-0.2-0.1-0.2-0.4h-0.5q0 0.5 0.3 0.8 0.3 0.3 0.8 0.3zm-0.6-0.6v-4.9h-0.5v4.9zm-0.2-4.6h8.8v-0.5h-8.8zm8.6-0.3v5.7h0.5v-5.7zm0.2 5.5h-8v0.5h8zm-7.2-1h5.6v-0.5h-5.6zm5.9-0.2v-2.8h-0.5v2.8zm-0.3-3.1h-5.6v0.5h5.6zm-5.9 0.3v2.8h0.5v-2.8zm7.3-10.3v8.2h0.5v-8.2zm0.2 8h-1.6v0.5h1.6zm-1.3 0.2v-3.3h-0.5v3.3zm-0.3-3.5h-3v0.5h3zm-2.7 0.2v-1.4h-0.5v1.4zm-0.3-1.2h3v-0.5h-3zm3.3-0.2v-3.5h-0.5v3.5zm-0.3-3.2h1.6v-0.5h-1.6zm-10.3 6.4c1.9-0.2 3.3-0.7 4.2-1.5 0.9-0.7 1.4-1.6 1.4-2.6h-0.5c0 0.8-0.4 1.6-1.2 2.2-0.8 0.7-2.1 1.2-4 1.4zm5.6-4.1v-0.5h-0.5v0.5zm-0.3-0.7h-4.8v0.5h4.8zm-4.6 0.2v-1.4h-0.5v1.4zm-0.2-1.2h6.4v-0.5h-6.4zm6.2-0.2v1.9h0.5v-1.9zm0 1.9c0 1.1-0.5 2.3-1.5 3.1-1 0.9-2.6 1.6-4.7 1.9l0.1 0.5c2.2-0.3 3.8-1 4.9-2 1.1-1 1.7-2.2 1.7-3.5zm-5.9 5.1l-0.5-1.4-0.5 0.2 0.5 1.4zm26.2 0.7v0.2h0.3v-0.2zm-13.1 0h-0.3v0.2h0.3zm0-1.4v-0.2h-0.3v0.2zm13.1 0h0.3v-0.2h-0.3zm-11.9-2.3c2.7-0.6 5.5-1.6 7.1-2.8l-0.3-0.4c-1.6 1.1-4.2 2.2-6.9 2.7zm0.7-4.4v-0.3h-0.3v0.3zm9.7 0h0.3l0.1-0.3h-0.4zm-3.5 3.3l-0.1-0.2-0.4 0.2 0.4 0.2zm4 0.8h0.3v-0.2l-0.3-0.1zm-0.2 1.5v0.3h0.2l0.1-0.2zm-5.5-1.5l0.2-0.2-0.1-0.1-0.1 0.1zm-4.9 1.4l-0.2 0.1 0.1 0.2h0.2zm-0.5-1.4l-0.1-0.3-0.3 0.1 0.1 0.3zm10.3-4.3c-0.4 1.2-1.7 2.3-3.4 3.2l0.2 0.4c1.8-0.9 3.2-2.1 3.6-3.4zm-0.2 11.9c0 0.7-0.2 1.4-0.9 1.8-0.6 0.5-1.8 0.9-3.6 0.9v0.5c1.9 0 3.1-0.4 3.9-1 0.8-0.5 1.1-1.3 1.1-2.2zm-4.5-2.6c1.8 0 2.9 0.3 3.6 0.8 0.7 0.4 0.9 1.1 0.9 1.8h0.5c0-0.8-0.3-1.6-1.1-2.2-0.8-0.6-2-0.9-3.9-0.9zm-4.5 2.6c0-0.7 0.2-1.4 0.9-1.8 0.7-0.5 1.8-0.8 3.6-0.8v-0.5c-1.8 0-3.1 0.3-3.9 0.9-0.8 0.6-1.1 1.4-1.1 2.2zm4.5 2.7c-1.8 0-2.9-0.4-3.6-0.9-0.7-0.4-0.9-1.1-0.9-1.8h-0.5c0 0.9 0.3 1.7 1.1 2.2 0.8 0.6 2.1 1 3.9 1zm-3.4-2.7q0 0.4 0.2 0.7 0.1 0.3 0.5 0.6c0.6 0.3 1.4 0.4 2.7 0.4v-0.5c-1.3 0-2-0.1-2.4-0.4q-0.3-0.1-0.4-0.3-0.1-0.2-0.1-0.5zm3.4-1.7c-1.3 0-2.1 0.1-2.7 0.4q-0.4 0.3-0.5 0.6-0.2 0.3-0.2 0.7h0.5q0-0.3 0.1-0.5 0.1-0.2 0.4-0.3c0.4-0.3 1.1-0.4 2.4-0.4zm3.4 1.7q0-0.4-0.1-0.7-0.2-0.3-0.6-0.6c-0.5-0.3-1.4-0.4-2.7-0.4v0.5c1.3 0 2 0.1 2.4 0.4q0.3 0.1 0.4 0.3 0.1 0.2 0.1 0.5zm-3.4 1.7c1.3 0 2.2-0.1 2.7-0.4q0.4-0.3 0.6-0.6 0.1-0.3 0.1-0.7h-0.5q0 0.3-0.1 0.5-0.1 0.2-0.4 0.3c-0.4 0.3-1.1 0.4-2.4 0.4zm6.5-5.6h-13.1v0.5h13.1zm-12.8 0.2v-1.4h-0.5v1.4zm-0.3-1.2h13.1v-0.5h-13.1zm12.9-0.2v1.4h0.5v-1.4zm-10.8-5.3v-1.4h-0.5v1.4zm-0.3-1.2h9.8v-0.5h-9.8zm6.3 1.2l0.2 0.2 0.6-0.4h-0.8zm-0.1 2.1c1 0.5 2.3 0.6 4.1 0.8v-0.5c-1.8-0.2-3-0.3-3.9-0.8zm3.8 0.5l-0.2 1.5 0.5 0.1 0.2-1.5zm0.1 1.3c-2.1-0.2-4-0.6-5.3-1.5l-0.3 0.5c1.5 0.9 3.4 1.3 5.5 1.5zm-5.5-1.5c-1.4 0.6-3.1 1.1-4.7 1.5l0.1 0.4c1.6-0.3 3.3-0.8 4.8-1.4zm-4.5 1.6l-0.5-1.4-0.4 0.2 0.5 1.3zm0-4h-0.3v0.3h0.3zm6.2-0.3h-6.2v0.5h6.2zm9.5 8.5v-0.2h-0.3v0.2zm1.6 0h0.3v-0.2h-0.3zm0 3.1h-0.2v0.3h0.2zm7.6 0h0.2v-0.3h-0.2zm0 1.5v0.2h0.2v-0.2zm-0.4-14.6h0.2v-0.2h-0.2zm0 10.4v0.3h0.2v-0.3zm-1.6 0h-0.2v0.3h0.2zm0-2.2h0.3v-0.3l-0.3 0.1zm-10.3 0.8h-0.2v0.2h0.2zm-0.1-1.4v-0.3h-0.3v0.3zm4.4-0.1v0.2h0.2v-0.2zm0-1.6h0.3v-0.2h-0.3zm-3-5.3v-0.3h-0.3v0.3zm6.9 0h0.2v-0.3h-0.2zm0 1.5v0.2h0.2v-0.2zm-5.2 0v-0.3h-0.3v0.3zm0 2.4h-0.2v0.2h0.2zm5.3 0h0.2v-0.2h-0.2zm0 1.4v0.3h0.2v-0.3zm-2.2 0v-0.2h-0.2v0.2zm0 1.5h-0.3v0.2h0.3zm4.4-0.5l0.1 0.3 0.2-0.1v-0.2zm0-6.9v-0.2h-0.3v0.2zm-6.2 14.3q-0.3 0-0.5-0.2-0.1-0.1-0.1-0.4h-0.5q0 0.5 0.3 0.8 0.3 0.3 0.8 0.3zm-0.6-0.6v-3.7h-0.5v3.7zm-0.3-3.5h1.6v-0.5h-1.6zm1.4-0.2v3.1h0.5v-3.1zm0.2 3.3h7.6v-0.5h-7.6zm7.4-0.2v1.4h0.5v-1.4zm0.2 1.2h-8.3v0.5h8.3zm-0.7-14.3v10.5h0.5v-10.5zm0.2 10.2h-1.6v0.5h1.6zm-1.3 0.3v-2.2h-0.5v2.2zm-0.3-2.5c-3.5 0.7-7.9 0.8-10.2 0.8v0.5c2.3 0 6.8-0.1 10.3-0.8zm-9.9 1l-0.2-1.4-0.5 0.1 0.2 1.4zm-0.5-1.2c1.1 0 2.7 0 4.4-0.1v-0.5c-1.7 0.1-3.3 0.1-4.4 0.1zm4.7-0.3v-1.6h-0.5v1.6zm-0.3-1.8h-2.2v0.5h2.2zm-2.2 0q-0.3 0-0.5-0.2-0.1-0.1-0.1-0.4h-0.5q0 0.5 0.3 0.8 0.3 0.3 0.8 0.3zm-0.6-0.6v-4.5h-0.5v4.5zm-0.3-4.2h6.9v-0.5h-6.9zm6.6-0.3v1.5h0.5v-1.5zm0.3 1.2h-5.3v0.5h5.3zm-5.5 0.3v2.4h0.5v-2.4zm0.2 2.6h5.3v-0.5h-5.3zm5-0.2v1.4h0.5v-1.4zm0.3 1.2h-2.2v0.5h2.2zm-2.4 0.2v1.5h0.5v-1.5zm0.2 1.7c1.5-0.1 3.1-0.3 4.5-0.5l-0.1-0.5c-1.4 0.3-2.9 0.4-4.4 0.5zm4.6-0.7v-6.9h-0.5v6.9zm-0.2-6.7h1.6v-0.5h-1.6zm18.9-0.2h0.2v-0.3h-0.2zm0 14.2v0.2h0.2v-0.2zm-1.6 0h-0.2v0.2h0.2zm0-14.1v-0.3h-0.2v0.3zm-10.2 9.7l-0.1-0.3-0.3 0.1 0.2 0.3zm5.3-7.3h0.2v-0.3h-0.2zm-4.9 0h-0.2v0.3h0.2zm0-1.4v-0.3h-0.2v0.3zm6.4 0h0.3v-0.3h-0.3zm-6.4 10.1l-0.2 0.1 0.1 0.2 0.2-0.1zm11-11v14.1h0.5v-14.1zm0.2 13.8h-1.6v0.5h1.6zm-1.3 0.3v-14.1h-0.5v14.1zm-0.3-13.9h1.6v-0.5h-1.6zm-10.1 9.7c1.9-0.3 3.3-0.9 4.2-1.9 0.9-1.1 1.3-2.5 1.3-4.5h-0.5c0 1.9-0.4 3.2-1.2 4.2-0.8 0.9-2 1.4-3.9 1.7zm5.6-6.4v-1.1h-0.5v1.1zm-0.3-1.4h-4.9v0.5h4.9zm-4.6 0.3v-1.4h-0.5v1.4zm-0.3-1.2h6.5v-0.5h-6.5zm6.3-0.2v2.5h0.5v-2.5zm0 2.5c0 2.2-0.6 3.8-1.6 5-1 1.1-2.5 1.9-4.7 2.3l0.1 0.5c2.2-0.4 3.9-1.2 5-2.5 1.1-1.3 1.7-3 1.7-5.3zm-6 7.5l-0.5-1.4-0.5 0.1 0.6 1.4zm24.1-10.8h0.2v-0.2h-0.2zm0 6.6v0.3h0.2v-0.3zm-9.2-6.6v-0.3h-0.3v0.3zm1.6 0h0.3v-0.3h-0.3zm0 2.1h-0.2v0.2h0.2zm6.1 0v0.3h0.2v-0.3zm0-2v-0.3h-0.2v0.3zm-6.1 5.2h-0.2v0.3h0.2zm6.1 0v0.2h0.2v-0.2zm0-1.9h0.3v-0.2h-0.3zm-6 0v-0.3h-0.3v0.3zm9.6 5.9v0.3h0.3v-0.3zm-5.8 0v-0.2h-0.2v0.2zm0 4.8v0.3h0.2v-0.3zm-1.6 0h-0.2v0.3h0.2zm0-4.8h0.3v-0.3h-0.3zm-5.7 0h-0.3v0.3h0.3zm0-1.5v-0.2h-0.3v0.2zm13.1 0h0.3v-0.2h-0.3zm-2.2-7.9v6.6h0.5v-6.6zm0.3 6.4h-8.4v0.5h8.4zm-8.4 0q-0.4 0-0.5-0.2-0.1-0.1-0.1-0.4h-0.5q0 0.5 0.3 0.8 0.3 0.3 0.8 0.3zm-0.6-0.6v-5.8h-0.5v5.8zm-0.3-5.6h1.6v-0.5h-1.6zm1.4-0.2v2h0.5v-2zm0.2 2.3h6.1v-0.5h-6.1zm6.3-0.3v-2h-0.5v2zm-0.2-1.8h1.6v-0.5h-1.6zm-6.1 5.3h6.1v-0.5h-6.1zm6.3-0.3v-1.8h-0.5v1.8zm-0.2-2.1h-6.1v0.5h6.1zm-6.3 0.3v1.8h0.5v-1.8zm9.8 5.7h-5.7v0.5h5.7zm-6 0.2v4.8h0.5v-4.8zm0.3 4.6h-1.6v0.5h1.6zm-1.4 0.2v-4.8h-0.5v4.8zm-0.2-5h-5.8v0.5h5.8zm-5.5 0.2v-1.4h-0.5v1.4zm-0.3-1.2h13.1v-0.5h-13.1zm12.9-0.2v1.4h0.5v-1.4zm16.5-8.1h0.3v-0.3h-0.3zm0 14.2v0.2h0.3v-0.2zm-1.6 0h-0.3v0.2h0.3zm0-14.1v-0.3h-0.3v0.3zm-10.1 9.7l-0.1-0.3-0.3 0.1 0.1 0.3zm5.4-7.3h0.2v-0.2h-0.2zm-4.9 0h-0.3v0.2h0.3zm0-1.4v-0.3h-0.3v0.3zm6.5 0h0.3v-0.3h-0.3zm-6.4 10.1l-0.2 0.1v0.2h0.2zm11.1-11.1v14.1h0.5v-14.1zm0.2 13.8h-1.6v0.5h1.6zm-1.3 0.3v-14.1h-0.5v14.1zm-0.3-13.9h1.6v-0.5h-1.6zm-10.1 9.7c1.9-0.3 3.3-0.9 4.2-1.9 0.9-1.1 1.3-2.5 1.3-4.5h-0.5c0 1.9-0.4 3.2-1.2 4.2-0.8 0.9-2.1 1.4-3.9 1.7zm5.5-6.4v-1.1h-0.5v1.1zm-0.2-1.3h-4.9v0.5h4.9zm-4.6 0.2v-1.4h-0.5v1.4zm-0.3-1.2h6.5v-0.5h-6.5zm6.2-0.2v2.5h0.5v-2.5zm0 2.5c0 2.2-0.5 3.8-1.5 5-1 1.2-2.6 1.9-4.7 2.3l0.1 0.5c2.2-0.4 3.9-1.2 5-2.5 1.1-1.3 1.6-3 1.6-5.3zm-5.9 7.5l-0.5-1.4-0.5 0.2 0.5 1.4zm15.6-1.1v-0.2h-0.2v0.2zm1.6 0h0.2v-0.2h-0.2zm0 3.1h-0.3v0.2h0.3zm7.6 0h0.2v-0.2h-0.2zm0 1.4v0.3h0.2v-0.3zm-0.5-14.5h0.3v-0.2h-0.3zm0 4.2h-0.2v0.3h0.2zm2.3 0h0.3v-0.3h-0.3zm0 1.5v0.2h0.3v-0.2zm-2.3 0v-0.3h-0.3v0.3zm0 4.7v0.2h0.3v-0.2zm-1.6 0h-0.3v0.2h0.3zm0-2.3h0.2v-0.3l-0.3 0.1zm-10.2 0.8h-0.2v0.2h0.2zm-0.1-1.4v-0.3h-0.3v0.3zm3.4-0.1v0.3h0.3v-0.3zm0-3.1v-0.3h-0.3v0.3zm1.6 0h0.3v-0.3h-0.3zm0 3.1h-0.2v0.2h0.2zm5.4-0.5v0.2h0.3v-0.2zm0-6.8v-0.2h-0.3v0.2zm-1.8 0.8h0.2v-0.3h-0.2zm-0.6 5.2v0.3h0.2v-0.2zm-1.6-0.2l-0.2-0.1-0.1 0.3h0.3zm0.5-3.5h0.2v-0.3h-0.2zm-5.5 0h-0.3v0.3h0.3zm0-1.5v-0.2h-0.3v0.2zm2.8 13.6q-0.3-0.1-0.4-0.2-0.2-0.1-0.2-0.5h-0.5q0 0.5 0.3 0.9 0.3 0.3 0.8 0.3zm-0.6-0.7v-3.7h-0.5v3.7zm-0.2-3.4h1.6v-0.5h-1.6zm1.3-0.3v3.2h0.5v-3.2zm0.3 3.4h7.5v-0.5h-7.5zm7.3-0.2v1.4h0.5v-1.4zm0.2 1.2h-8.3v0.5h8.3zm-0.7-14.3v4.3h0.5v-4.3zm0.3 4.5h2.3v-0.5h-2.3zm2-0.2v1.4h0.5v-1.4zm0.3 1.2h-2.3v0.5h2.3zm-2.6 0.2v4.7h0.5v-4.7zm0.3 4.5h-1.6v0.5h1.6zm-1.4 0.2v-2.3h-0.5v2.3zm-0.3-2.6c-3.4 0.7-7.9 0.8-10.1 0.8v0.5c2.2 0 6.7-0.1 10.2-0.8zm-9.9 1l-0.2-1.4-0.5 0.1 0.2 1.4zm-0.4-1.2c0.9 0 2.1 0 3.4 0v-0.5c-1.3 0-2.5 0-3.4 0zm3.6-0.3v-3.1h-0.5v3.1zm-0.2-2.9h1.6v-0.5h-1.6zm1.3-0.2v3h0.5v-3zm0.3 3.3c1.8-0.1 3.7-0.3 5.4-0.6l-0.1-0.5c-1.6 0.3-3.5 0.5-5.3 0.6zm5.6-0.8v-6.8h-0.5v6.8zm-0.3-6.5h1.6v-0.5h-1.6zm-2.1 0.5c0 1.8-0.1 3.5-0.5 5.1l0.5 0.1c0.4-1.7 0.5-3.4 0.5-5.2zm-0.2 4.9l-1.6-0.2-0.1 0.5 1.6 0.2zm-1.4 0.1c0.3-1.1 0.5-2.2 0.5-3.6h-0.5c0 1.4-0.2 2.4-0.5 3.5zm0.3-3.8h-5.5v0.5h5.5zm-5.3 0.2v-1.4h-0.5v1.4zm-0.2-1.2h7.1v-0.5h-7.1zm19.9 4l-0.2 0.1v0.2h0.2zm1.1 0v0.2h0.3v-0.2zm0-4.9v-0.2h-0.3v0.2zm1.6 0h0.3v-0.2h-0.3zm0 13.3v0.3h0.3v-0.3zm-1.6 0h-0.3v0.3h0.3zm0-7.1h0.2v-0.2h-0.2zm-1.1 0v-0.3h-0.2l-0.1 0.3zm5.9-6.5h0.2v-0.2h-0.2zm0 14.1v0.2h0.2v-0.2zm-1.6 0h-0.2v0.2h0.2zm0-14.1v-0.2h-0.2v0.2zm-7.5 9.2c0.7 0 1.2-0.4 1.5-1 0.3-0.6 0.4-1.5 0.4-2.4h-0.5q0 1.4-0.4 2.2-0.3 0.7-1 0.7zm1.9-3.4c0-1-0.1-1.8-0.4-2.4-0.3-0.6-0.8-1-1.5-1v0.5q0.7 0 1 0.7 0.4 0.8 0.4 2.2zm-4.9 0c0-1.2 0.2-2.3 0.7-3.1 0.4-0.7 1.2-1.2 2.3-1.2v-0.5c-1.3 0-2.2 0.6-2.8 1.5-0.5 0.9-0.7 2.1-0.7 3.3zm3 4.3c-1.1 0-1.9-0.5-2.3-1.3-0.5-0.8-0.7-1.9-0.7-3h-0.5c0 1.2 0.2 2.4 0.7 3.3 0.6 0.9 1.5 1.5 2.8 1.5zm-1.9-4.3c0 0.9 0.1 1.8 0.4 2.4 0.3 0.6 0.8 1 1.5 1v-0.5q-0.7 0-1.1-0.7-0.3-0.8-0.3-2.2zm1.9-3.4c-0.7 0-1.2 0.4-1.5 1-0.3 0.6-0.4 1.4-0.4 2.4h0.5q0-1.4 0.3-2.2 0.4-0.7 1.1-0.7zm0-0.9c1 0 1.7 0.4 2.2 1 0.4 0.6 0.7 1.5 0.8 2.5h0.5c-0.1-1-0.4-2.1-0.9-2.8-0.6-0.8-1.4-1.2-2.6-1.2zm3.2 3.8h1.1v-0.5h-1.1zm1.4-0.3v-4.8h-0.5v4.8zm-0.3-4.6h1.6v-0.5h-1.6zm1.4-0.2v13.3h0.5v-13.3zm0.2 13.1h-1.6v0.5h1.6zm-1.3 0.2v-7h-0.5v7zm-0.3-7.3h-1.1v0.5h1.1zm-1.3 0.2c-0.1 1.1-0.3 2-0.8 2.7-0.5 0.6-1.2 1-2.2 1v0.5c1.2 0 2-0.5 2.6-1.3 0.5-0.7 0.8-1.7 0.9-2.8zm5.8-6.5v14.2h0.5v-14.2zm0.3 13.9h-1.6v0.5h1.6zm-1.4 0.3v-14.2h-0.5v14.2zm-0.2-13.9h1.6v-0.5h-1.6zm15.3-0.3h0.3v-0.2h-0.3zm0 14.1v0.3h0.3v-0.3zm-1.6 0h-0.3v0.3h0.3zm0-8h0.2v-0.2h-0.2zm-6.4 0c0.4 0.9 0.9 1.6 1.6 2.2 0.8 0.5 1.6 0.9 2.8 1.3l0.1-0.5c-1.1-0.3-1.9-0.7-2.5-1.2-0.7-0.5-1.2-1.1-1.6-2zm3.2-1.5v-0.2h-0.3v0.2zm3.3 0v0.3h0.2v-0.3zm0-4.7v-0.3h-0.2v0.3zm-10.7 9.6l-0.2-0.1-0.2 0.2 0.2 0.1zm4.4-9v-0.2h-0.2l-0.1 0.2zm1.6 0.2h0.2v-0.3h-0.2zm-5.7 9c1.3-1.3 2.3-2.5 3-4 0.8-1.5 1.2-3.1 1.4-5.1l-0.5-0.1c-0.2 2-0.6 3.6-1.3 5-0.7 1.4-1.6 2.6-3 3.9zm8.6-0.4l0.2 0.1 0.2-0.2-0.3-0.1zm-0.6 1.5l-0.1 0.2 0.2 0.1 0.1-0.2zm-4.4-3.5l0.2-0.1-0.2-0.4-0.2 0.4zm-2.6 3.1l-0.1 0.2 0.1 0.1 0.2-0.1zm10.9-10.7v14.2h0.5v-14.2zm0.2 13.9h-1.6v0.5h1.6zm-1.3 0.3v-8h-0.5v8zm-0.3-8.2h-3.3v0.5h3.3zm-3 0.2v-1.4h-0.5v1.4zm-0.3-1.1h3.3v-0.5h-3.3zm3.6-0.3v-4.8h-0.5v4.8zm-0.3-4.5h1.6v-0.5h-1.6zm-6.2 5.8l-0.2-0.1v0.1 0.1zm-0.2-5.1l1.6 0.1v-0.5l-1.5-0.1zm1.3-0.2c-0.3 2-0.7 3.7-1.4 5.2l0.5 0.2c0.7-1.6 1.1-3.3 1.4-5.3zm1.8 5.4h-0.3v0.3h0.3zm1.1 3.1l-0.7 1.5 0.5 0.2 0.6-1.5zm-0.3 1.4c-2.3-0.8-3.7-1.9-4.2-3.3l-0.5 0.2c0.6 1.6 2.2 2.7 4.5 3.6zm-4.6-3.4c-0.7 1.1-1.5 2.1-2.6 3.1l0.4 0.3c1-1 1.9-2 2.6-3.1zm-2.2 3l-1.2-0.9-0.3 0.3 1.2 1z"/>
	</g>
	<path class="s8" d="m64.7 298q-0.4 0-0.7-0.2-0.2-0.3-0.2-0.7v-4.1h1.6v3.6h7.7v1.4zm8-4.2h-1.6v-10.3h1.6zm-10.7-2.4q-0.4-0.1-0.6-0.3-0.3-0.2-0.3-0.6v-6.2h6.9v7.1zm4.4-1.5v-4.1h-3.7v4.1zm11.1 8.1q-0.4 0-0.6-0.2-0.3-0.2-0.3-0.7v-2.8h7.7v-0.9h-7.7v-1.4h9.3v3.7h-7.7v0.9h8.2v1.4zm-2.8-7.1v-1.3h13.1v1.3zm2.8-2.5q-0.4 0-0.6-0.3-0.3-0.2-0.3-0.6v-3.8h9.3v1.4h-7.7v1.8h7.7v1.5zm11.9-3.6h5.3v5.1h-3.8v2.6h0.6q2.5 0 4-0.7l0.3 1.4q-1 0.4-2.2 0.6-1.2 0.1-2.4 0.1-0.4 0-1 0-0.4 0-0.7-0.3-0.2-0.2-0.2-0.6v-4.5h3.8v-2.2h-3.7zm8.6 12.1h-1.6v-7h-1.2v-1.5h1.2v-4.8h1.6zm3.2 0.6h-1.6v-14.1h1.6zm4.3 0.4q-0.4 0-0.6-0.2-0.2-0.3-0.2-0.7v-3.7h1.6v3.2h8v1.4zm-2.7-6.1v-1.5h13.1v1.5zm2.9-2.8q-0.5 0-0.7-0.2-0.2-0.3-0.2-0.7v-4.4h1.6v3.9h7.6v1.4zm19.6-4.5l3.8 11.2h-1.6l-1.1-3h-4l-1 3h-1.7l3.9-11.2zm0.6 6.7l-1.5-4.6-1.6 4.6zm7.4-5.3v8.3h1.7v1.5h-5v-1.5h1.7v-8.3h-1.7v-1.4h5v1.4zm5.7 12q-0.4 0-0.6-0.2-0.2-0.3-0.2-0.7v-2.5h7.6v-0.8h-7.6v-1.3h9.2v3.4h-7.6v0.7h8.1v1.4zm-2.8-6.5v-1.3h13.1v1.3zm2.8-2.2q-0.4 0-0.7-0.2-0.2-0.2-0.2-0.6v-2.7h7.6v-0.8h-7.6v-1.4h9.2v3.5h-7.6v0.9h8.1v1.3zm21.1 9.2q-2.6 0-3.7-0.7-1.1-0.7-1.1-1.9 0-1.2 1.1-1.9 1.1-0.7 3.7-0.7 2.5 0 3.6 0.7 1.1 0.7 1.1 1.9 0 1.2-1.1 1.9-1.1 0.7-3.6 0.7zm0-1.5q1.8 0 2.4-0.3 0.7-0.3 0.7-0.8 0-0.6-0.6-0.9-0.7-0.3-2.5-0.3-1.8 0-2.5 0.3-0.7 0.3-0.7 0.9 0 0.5 0.7 0.8 0.7 0.3 2.5 0.3zm-6.6-4.5v-1.4h5.7v-1h-2.9q-0.4 0-0.7-0.3-0.2-0.2-0.2-0.6v-5.4h9.2v1.3h-7.6v1.2h7.4v1.3h-7.4v1.2h7.9v1.3h-4.1v1h5.8v1.4zm21.1-3.8h-1.6q0.5 0.3 0.7 0.9 0.3 0.5 0.3 1.2 0 1.5-0.7 2.5-0.7 1-2.2 1-1.5 0-2.2-1-0.8-1-0.8-2.5 0-0.7 0.3-1.2 0.3-0.6 0.8-0.9h-1.7v-1.5h7.1zm-3.5 4.3q1.3 0 1.3-2.1 0-1-0.3-1.6-0.3-0.5-1-0.5-0.7 0-1 0.5-0.4 0.6-0.4 1.6 0 1 0.4 1.5 0.3 0.6 1 0.6zm-1.6-8.7q0.5 0.2 1.5 0.2 1 0.1 2.2 0.1v1.5q-1.3-0.1-2.5-0.1-1.1-0.1-1.8-0.4zm7.4 4.6h1.5v-5.3h1.6v14.1h-1.6v-7.3h-1.5v6.7h-1.6v-13.4h1.6zm-102.5 31.2q-0.4 0-0.7-0.2-0.2-0.2-0.2-0.6v-4.9h8.9v5.7zm6.3-1.4v-2.8h-5.6v2.8zm1.6-4.9h-1.6v-3.3h-3v-1.4h3v-3.5h1.6zm-11.9-1.8q2.7-0.3 4-1.3 1.3-1 1.3-2.5v-0.5h-4.9v-1.4h6.5v1.9q0 1.2-0.7 2.3-0.7 1.1-2.2 1.9-1.4 0.7-3.5 1zm20.4 8.6q-2.5 0-3.6-0.8-1.1-0.8-1.1-2.1 0-1.3 1.1-2.1 1.1-0.8 3.6-0.8 2.6 0 3.7 0.8 1.1 0.8 1.1 2.1 0 1.3-1.1 2.1-1.1 0.8-3.7 0.8zm0-1.5q1.8 0 2.5-0.3 0.7-0.4 0.7-1.1 0-0.7-0.7-1.1-0.7-0.4-2.5-0.4-1.8 0-2.5 0.4-0.6 0.4-0.6 1.1 0 0.7 0.7 1.1 0.6 0.3 2.4 0.3zm-6.6-5.1v-1.4h13.2v1.4zm1.8-8.1h9.7q-0.3 0.8-1.2 1.7-0.9 0.8-2.3 1.6 0.7 0.3 1.6 0.5 0.9 0.1 2.4 0.2l-0.2 1.5q-3.4-0.2-5.4-1.5-2.2 1-4.8 1.5l-0.5-1.4q2-0.4 3.9-1.1 1.9-0.7 3.1-1.6h-6.3zm16.6 14.3q-0.5-0.1-0.7-0.3-0.2-0.2-0.2-0.6v-3.7h1.6v3.1h7.6v1.5zm7.8-4.1h-1.6v-2.2q-2.3 0.4-5.1 0.6-2.8 0.2-5.1 0.2l-0.2-1.4q2 0 4.4-0.2v-1.5h-2.2q-0.4 0-0.7-0.2-0.2-0.3-0.2-0.7v-4.4h6.9v1.4h-5.3v2.5h5.3v1.4h-2.2v1.4q2.6-0.2 4.4-0.5v-6.9h1.6zm17.3 3.7h-1.6v-14.1h1.6zm-11.8-4.4q1.9-0.3 3.1-1 1.1-0.8 1.7-2 0.5-1.2 0.5-3.2v-1.1h-4.8v-1.4h6.4v2.5q0 3.3-1.5 5.1-1.6 1.8-4.9 2.5zm17.2 4.8q-0.4 0-0.6-0.3-0.2-0.2-0.2-0.6v-3.7h1.6v3.1h7.5v1.5zm7.9-10.3h2.3v1.5h-2.3v4.7h-1.6v-2.3q-2.3 0.4-5.1 0.6-2.8 0.1-5.1 0.2l-0.2-1.5q1.6 0 3.4-0.1v-3.1h1.6v3.1q3-0.2 5.4-0.6v-6.7h1.6zm-3.5-3.6q0 1.6-0.1 2.9-0.2 1.2-0.4 2.3l-1.6-0.2q0.2-0.9 0.3-1.8 0.1-0.8 0.1-1.7h-5.5v-1.5zm9.6 9.6q-1.7 0-2.5-1.3-0.8-1.3-0.8-3.3 0-1.9 0.8-3.2 0.8-1.3 2.5-1.3 1.5 0 2.3 1 0.8 1.1 0.9 2.8h1.1v-4.9h1.6v13.4h-1.6v-7.1h-1.1q-0.1 1.8-0.9 2.8-0.8 1.1-2.3 1.1zm0-1.4q0.8 0 1.2-0.8 0.5-0.9 0.5-2.4 0-1.4-0.5-2.2-0.4-0.9-1.2-0.9-0.8 0-1.3 0.9-0.4 0.8-0.4 2.2 0 1.5 0.4 2.4 0.4 0.8 1.3 0.8zm9.1 5.2h-1.6v-14.1h1.6zm5 0.4q-0.5 0-0.7-0.3-0.2-0.2-0.2-0.6v-4.2h1.6v3.6h7.7v1.5zm8-10.4h2.3v1.4h-2.3v4.7h-1.6v-10.2h1.6zm-9.9 3.7q-0.4 0-0.7-0.2-0.2-0.3-0.2-0.7v-6.1h6.6v7zm4.2-1.4v-4.2h-3.4v4.2z"/>
	<path class="s9" d="m127.8 228.6h-14.6c-0.3 0-0.6 0.3-0.6 0.6v10.3c0 0.4 0.3 0.6 0.6 0.6h14.6c0.3 0 0.6-0.2 0.6-0.6v-10.3c0-0.3-0.3-0.6-0.6-0.6z"/>
	<path class="s9" d="m119.3 240.1l-1.2 3.3"/>
	<path class="s9" d="m121.7 240.1l1.2 3.3"/>
	<path class="s9" d="m116.9 243.4h7.2"/>
	<path class="s9" d="m117.5 235l2.4 1.9 4.2-5.1"/>
</svg>