<svg version="1.2" xmlns="http://www.w3.org/2000/svg" viewBox="0 0 241 348" width="241" height="348">
	<title>OnboardingCard2</title>
	<defs>
		<clipPath clipPathUnits="userSpaceOnUse" id="cp1">
			<path d="m0 0h241v348h-241z"/>
		</clipPath>
		<linearGradient id="g1" x2="1" gradientUnits="userSpaceOnUse" gradientTransform="matrix(116.017,-75.594,105.718,162.249,-25.776,254.377)">
			<stop offset="0" stop-color="#ffffff" stop-opacity=".27"/>
			<stop offset=".689" stop-color="#ffffff" stop-opacity="0"/>
		</linearGradient>
		<linearGradient id="g2" x2="1" gradientUnits="userSpaceOnUse" gradientTransform="matrix(108.313,253.961,-122.637,52.304,37.177,68.536)">
			<stop offset=".325" stop-color="#fff4c4"/>
			<stop offset=".595" stop-color="#ffefa9"/>
			<stop offset=".814" stop-color="#ffe77f"/>
			<stop offset=".897" stop-color="#ffd727"/>
			<stop offset="1" stop-color="#cda217"/>
		</linearGradient>
		<linearGradient id="g3" x2="1" gradientUnits="userSpaceOnUse" gradientTransform="matrix(375.304,38.538,-44.692,435.239,-47.435,141.866)">
			<stop offset=".894" stop-color="#ffe89c"/>
			<stop offset="1" stop-color="#ffffff"/>
		</linearGradient>
		<linearGradient id="g4" x2="1" gradientUnits="userSpaceOnUse" gradientTransform="matrix(187.867,33.135,-36.536,207.149,-10.206,226.477)">
			<stop offset=".06" stop-color="#ffffff" stop-opacity=".45"/>
			<stop offset=".701" stop-color="#ffffff" stop-opacity="0"/>
		</linearGradient>
		<filter x="-50%" y="-50%" width="200%" height="200%" id="f1"> <feGaussianBlur stdDeviation="15"/> </filter>
		<linearGradient id="g5" x2="1" gradientUnits="userSpaceOnUse" gradientTransform="matrix(15.276,207.051,-93.804,6.921,115.939,84.233)">
			<stop offset=".46" stop-color="#e5b92e"/>
			<stop offset="1" stop-color="#ffefa9"/>
		</linearGradient>
		<linearGradient id="g6" x2="1" gradientUnits="userSpaceOnUse" gradientTransform="matrix(0,22.29,-10.222,0,129.244,72.132)">
			<stop offset="0" stop-color="#ffefa9"/>
			<stop offset="1" stop-color="#f8d04f"/>
		</linearGradient>
		<linearGradient id="g7" x2="1" gradientUnits="userSpaceOnUse" gradientTransform="matrix(38.224,80.22,-28.472,13.567,118.22,108.366)">
			<stop offset=".049" stop-color="#ffefa9"/>
			<stop offset=".373" stop-color="#ffe679"/>
			<stop offset=".717" stop-color="#ffe369"/>
			<stop offset="1" stop-color="#fcc411"/>
		</linearGradient>
		<linearGradient id="g8" x2="1" gradientUnits="userSpaceOnUse" gradientTransform="matrix(0,29.693,-24.251,0,143.084,205.556)">
			<stop offset="0" stop-color="#ffefa9"/>
			<stop offset="1" stop-color="#f8d04f"/>
		</linearGradient>
		<linearGradient id="g9" x2="1" gradientUnits="userSpaceOnUse" gradientTransform="matrix(.493,60.36,-42.468,.347,120.318,160.382)">
			<stop offset="0" stop-color="#ffefa9"/>
			<stop offset="1" stop-color="#eec02d"/>
		</linearGradient>
		<linearGradient id="g10" x2="1" gradientUnits="userSpaceOnUse" gradientTransform="matrix(15.205,206.347,-93.588,6.896,122.06,79.931)">
			<stop offset=".46" stop-color="#ffefa9"/>
			<stop offset=".659" stop-color="#ffec97"/>
			<stop offset="1" stop-color="#ffe678"/>
		</linearGradient>
		<linearGradient id="g11" x2="1" gradientUnits="userSpaceOnUse" gradientTransform="matrix(0,182,-241,0,120.5,166)">
			<stop offset="0" stop-color="#f8d04f" stop-opacity="0"/>
			<stop offset=".216" stop-color="#f8d04f" stop-opacity=".29"/>
			<stop offset=".402" stop-color="#f8d04f" stop-opacity=".62"/>
			<stop offset="1" stop-color="#f8d04f" stop-opacity="1"/>
		</linearGradient>
		<clipPath clipPathUnits="userSpaceOnUse" id="cp2">
			<path d="m61 250.84h119v16h-119zm10.8 0.72v14.13h1.6v-6.97h2.29v-1.44h-2.29v-5.72zm-4.27 2.56c-0.7 2.61-3.02 5.57-5.61 7.04l0.92 1.22c1.01-0.51 2.15-1.44 3.2-2.59 0.8 1.39 2.21 2.03 3.88 2.7l0.76-1.5c-1.52-0.61-2.8-1.09-3.68-2.37 1.33-1.76 2.37-3.87 2.56-5.94h-7.12v1.44zm19.97 9.52c0-1.56-1.12-2.91-4.77-2.91-3.65 0-4.77 1.35-4.77 2.91 0 1.56 1.11 2.9 4.77 2.9 3.67 0 4.77-1.34 4.77-2.9zm-7.94 0c0-0.84 0.58-1.47 3.17-1.47 2.58 0 3.17 0.63 3.17 1.47 0 0.84-0.59 1.46-3.17 1.46-2.57 0-3.17-0.62-3.17-1.46zm9.7-5.44h-5.76v-1.45h3.82v-1.44h-7.63v-1.97h7.63v-1.44h-9.23v3.98c0 0.56 0.31 0.87 0.87 0.87h2.94v1.45h-5.76v1.44h13.12zm14.71-6.64v14.13h1.6v-14.13zm-9.67 11.09c4.32-0.85 6.42-3.04 6.42-7.57v-2.52h-6.47v1.44h4.87v1.08c0 3.92-1.59 5.59-5.33 6.18zm22.78-10.9v2.04h-6.08v-2.04h-1.6v5.8c0 0.56 0.31 0.86 0.87 0.86h8.41v-6.66zm-6.08 3.38h6.08v1.87h-6.08zm9.62 4.51h-13.12v1.44h5.76v4.82h1.6v-4.82h5.76zm6.72 0.76v2.12h-5.76v1.44h13.12v-1.44h-5.76v-2.12h4.19v-1.44h-8.05v-1.8h7.57v-4.68h-9.17v1.44h7.57v1.79h-7.57v3.82c0 0.56 0.3 0.87 0.86 0.87zm24.15 5.68v-1.44h-7.73v-3.12h-1.6v3.69c0 0.56 0.3 0.87 0.86 0.87zm-2.08-14.52v2.1h-2.2v1.44h2.2v1.6h-2.2v1.44h2.2v3.71h1.6v-10.29zm-10.49 2.15h7.97v-1.44h-7.97zm-0.32 6.69c2.81 0 5.79 0 9.12-0.61l-0.16-1.44q-1.23 0.21-2.4 0.35c0.37-1.28 0.54-2.51 0.54-4l-1.52-0.08c0 1.46-0.06 2.72-0.32 4.19q-0.96 0.07-1.9 0.11c-0.27-1.53-0.34-2.81-0.34-4.3l-1.52 0.08c0 1.6 0.21 2.88 0.61 4.24l-2.11 0.02zm24.09-8.84v14.13h1.6v-6.97h2.29v-1.44h-2.29v-5.72zm-9.79 3.56v1.44h2.13c-0.74 0.48-1.27 1.26-1.27 2.38 0 2.06 1.03 3.79 3.35 3.79 2.3 0 3.33-1.74 3.33-3.79 0-1.12-0.52-1.9-1.27-2.38h2.11v-1.44zm2.47 3.82c0-1.36 0.48-2.3 1.74-2.3 1.23 0 1.73 0.94 1.73 2.3 0 1.42-0.5 2.35-1.73 2.35-1.25 0-1.74-0.94-1.74-2.35zm-0.75-5.62c1.32 0.44 3.95 0.44 5.18 0.44v-1.44c-1.23 0-3.57 0-4.67-0.37zm13.13 8.99c3.27-0.46 4.71-1.84 5.22-4.3h1.76v7.04h1.6v-13.33h-1.6v4.85h-1.57q0.05-0.62 0.05-1.32v-2.38h-5.5v1.44h3.9v0.94c0 3.64-0.62 5.27-4.37 5.67zm10.15-10.75v14.12h1.6v-14.12z"/>
		</clipPath>
		<clipPath clipPathUnits="userSpaceOnUse" id="cp3">
			<path d="m111 225h19v19h-19z"/>
		</clipPath>
	</defs>
	<style>
		.s0 { opacity: .3;fill: #ffffff } 
		.s1 { opacity: .3;fill: none;stroke: #ffffff } 
		.s2 { opacity: .62;fill: #ffe798;stroke: url(#g1);stroke-width: 1.1 } 
		.s3 { opacity: .6;fill: url(#g2) } 
		.s4 { opacity: .2;fill: url(#g3);stroke: url(#g4);stroke-width: 1.1 } 
		.s5 { filter: url(#f1);fill: url(#g5) } 
		.s6 { fill: url(#g6) } 
		.s7 { fill: #ffd241 } 
		.s8 { opacity: .6;fill: url(#g7) } 
		.s9 { fill: url(#g8) } 
		.s10 { fill: url(#g9) } 
		.s11 { opacity: .7;fill: url(#g10) } 
		.s12 { fill: url(#g11) } 
		.s13 { fill: #fbf9f4 } 
		.s14 { fill: none;stroke: #fbf9f4;stroke-linecap: round;stroke-linejoin: round } 
	</style>
	<g>
		<path class="s0" d="m0 20c0-11 9-20 20-20h201c11 0 20 9 20 20v308c0 11-9 20-20 20h-201c-11 0-20-9-20-20z"/>
		<path class="s1" d="m0.5 20c0-10.8 8.7-19.5 19.5-19.5h201c10.8 0 19.5 8.7 19.5 19.5v308c0 10.8-8.7 19.5-19.5 19.5h-201c-10.8 0-19.5-8.7-19.5-19.5z"/>
	</g>
	<g id="Clip-Path" clip-path="url(#cp1)">
		<g>
			<g style="opacity: .7">
				<path class="s2" d="m198.1 145.7l6.6 16.5 5.1 17 3.4 17.4 1.7 17.6-0.3 17.1-2.1 16.1-3.9 15-5.6 13.6-7.4 12.2-8.9 10.6-10.5 8.8-12 7-13.3 4.8-14.7 2.4-15.8-0.1-16.9-3-17.3-5.7-16.9-8.4-16.2-10.7-15.3-13-14.2-14.9-12.8-16.5-11.2-18-9.4-19-7.4-19.7-5.1-20.2-2.8-20.2-0.3-20 2.2-18.8 4.5-16.9 6.6-14.9 8.4-12.7 9.9-10.5 11.3-8.4 12.5-6.1 13.3-3.9 14.2-1.6 14.8 0.7 15.2 3.1 15.6 5.3 15.3 7.5 14.5 9.2 13.5 10.7 12.6 12.1 11.6 13.2 10.4 14.3 9.2 15.1z"/>
				<path fill-rule="evenodd" class="s3" d="m-18.8 97.6l-4.7 17.4-2.5 19.2v20.4l2.5 20.6 4.8 20.4 7.1 20 9 19.2 10.8 18 12.5 16.7 13.9 15 15 12.9 16 10.8 16.6 8.3 17.1 5.7 16.9 2.8h15.8l14.7-2.7 10.8-3.9 11.1-4 11.2-4.1 11.4-4.1-14.7 2.6-16-0.2-17-3.1-17.3-6-17-8.8-16.3-11.3-15.3-13.6-14.3-15.7-12.8-17.4-11.3-18.8-9.4-19.9-7.4-20.8-5.2-21.1-2.8-21.3-0.2-21 2.2-19.8 4.5-17.8 6.6-15.6 8.5-13.5 10-11.1 11.4-8.8-10.2 6.7-9.9 6.6-9.8 6.5-9.6 6.4-11.4 8.8-10 11-8.6 13.1z"/>
				<path class="s4" d="m238.3 123.7l6.6 17.3 5.1 17.8 3.4 18.2 1.7 18.4-0.3 18-2.1 16.9-3.9 15.6-5.6 14.3-7.4 12.8-8.9 11.1-10.5 9.3-12 7.2-13.3 5-14.7 2.6-15.8-0.1-16.9-3.1-17.3-6.1-16.9-8.7-16.2-11.3-15.3-13.5-14.2-15.6-12.9-17.4-11.2-18.8-9.4-19.9-7.3-20.6-5.2-21.1-2.8-21.2-0.3-21 2.2-19.7 4.6-17.7 6.5-15.6 8.4-13.3 10-11.1 11.3-8.7 12.4-6.4 13.4-4.1 14.2-1.6 14.8 0.7 15.2 3.2 15.6 5.5 15.3 7.9 14.4 9.6 13.6 11.2 12.6 12.7 11.5 13.9 10.5 14.9 9.2 15.9z"/>
				<g>
					<path class="s5" d="m134.4 75.4c5.4 1.3 9.9 6.9 10.2 12.6l0.4 9.9c19.3 8.9 27.9 28.1 28.8 40.4 0.5 5.7-3.4 9.4-8.7 8.3q-0.4 0-0.8-0.1c-4.8-1.1-9.1-6.7-9.6-12-0.3-3.7-2.7-15.9-18.3-19.5-15-3.4-16.4 6.8-16.3 11.3 0.3 3.7 2.9 14.1 18.1 17.6 26.4 6.1 37.4 30.2 38.4 45l0.1 0.5-0.1 0.5c-0.3 7.4-3 13.8-7.5 18.3-4.6 4.4-10.7 6.7-17.7 6.5l0.7 11.8c0.3 5.6-3.8 9.2-9.1 8-5.3-1.3-9.8-6.9-10.1-12.5l-0.7-11.7c-19.5-8.8-27.2-27.6-28.5-37.5-0.8-5.7 2.8-9.8 8-9.1q0.5 0.1 0.9 0.2c5 1.2 9.3 6 10.1 11.5 0.5 3.2 3.4 14.3 18.1 17.7 14.5 3.3 16.4-6.2 16.6-8.9-0.5-4.4-3.3-16.4-18.2-19.9-26.4-6.1-37.4-28.7-38.3-42.5-0.6-12.6 5.9-28.5 24.9-28.4l-0.4-10.1c-0.3-5.6 3.8-9.2 9-7.9z"/>
				</g>
				<path fill-rule="evenodd" class="s6" d="m127 77.5l7.4-5.4c-1.9 1.4-3.1 3.8-2.9 6.9l-7.4 5.3 0.5 10.1 7.3-5.3-0.4-10.1-7.4 5.3c-0.1-3 1-5.4 2.9-6.8z"/>
				<path fill-rule="evenodd" class="s7" d="m171.1 142.1c2.3 0.5 4.3 0.1 5.9-1.1l-7.3 5.4c-1.6 1.1-3.6 1.5-5.9 1q-0.4 0-0.8-0.1c-4.8-1.1-9.1-6.7-9.5-12-0.4-3.6-2.8-15.7-18.4-19.3-6-1.4-9.8-0.6-12.2 1.1l7.3-5.3c2.4-1.7 6.2-2.6 12.2-1.2 15.6 3.6 18 15.7 18.4 19.4 0.4 5.3 4.7 10.9 9.5 12z"/>
				<path fill-rule="evenodd" class="s8" d="m99.7 122.7c-0.4-8.4 2.4-18.3 10-23.9l7.3-5.3c-7.6 5.6-10.4 15.5-10 23.9 1 13.7 12 36.3 38.3 42.4 14.9 3.4 17.6 15.4 18.1 19.8l-7.3 5.3c-0.5-4.4-3.3-16.4-18.1-19.8-26.4-6.1-37.3-28.6-38.3-42.4zm59.7 64.4l-7.3 5.4c3.2-2.4 3.9-6.1 4-7.6l7.3-5.3c-0.1 1.5-0.8 5.2-4 7.5z"/>
				<path class="s7" d="m172.6 205.5l-7.3 5.4c-4.2 3-9.5 4.6-15.1 4.4l7.3-5.3c5.7 0.1 10.9-1.4 15.1-4.5z"/>
				<path fill-rule="evenodd" class="s9" d="m138.9 217.2l-0.6-11.6-7.3 5.3 0.6 11.7c0.3 5.6 4.8 11.2 10.1 12.4 2.4 0.6 4.6 0.1 6.2-1l7.3-5.4c-1.6 1.2-3.8 1.6-6.2 1.1-5.3-1.3-9.8-6.8-10.1-12.5z"/>
				<path class="s10" d="m138.3 205.6l-7.3 5.3c-19.5-8.8-27.2-27.5-28.5-37.3-0.5-3.5 0.6-6.3 2.7-7.9l7.4-5.3c-2.2 1.5-3.3 4.4-2.8 7.8 1.3 9.9 9 28.6 28.5 37.4z"/>
				<path class="s11" d="m140.5 71.1c5.4 1.3 9.9 6.9 10.1 12.5l0.4 10c19.3 8.8 27.9 27.9 28.8 40.2 0.5 5.7-3.4 9.4-8.7 8.3q-0.4 0-0.8-0.1c-4.8-1.2-9.1-6.7-9.5-12-0.4-3.7-2.8-15.8-18.4-19.4-14.9-3.4-16.3 6.7-16.2 11.3 0.4 3.7 2.9 14 18 17.4 26.4 6.1 37.4 30.2 38.4 44.9l0.1 0.5-0.1 0.6c-0.3 7.3-3 13.7-7.5 18.1-4.6 4.5-10.7 6.8-17.6 6.6l0.6 11.7c0.3 5.6-3.8 9.2-9 7.9-5.3-1.2-9.9-6.7-10.2-12.4l-0.6-11.7c-19.4-8.7-27.2-27.5-28.5-37.3-0.8-5.7 2.8-9.8 8.1-9q0.4 0 0.8 0.1c5 1.2 9.3 6.1 10.1 11.5 0.5 3.2 3.4 14.2 18.1 17.6 14.4 3.3 16.3-6.2 16.6-8.8-0.6-4.4-3.3-16.4-18.2-19.8-26.3-6.1-37.3-28.7-38.2-42.4-0.6-12.6 5.8-28.4 24.8-28.3l-0.4-10.1c-0.3-5.6 3.8-9.1 9-7.9z"/>
			</g>
		</g>
	</g>
	<path class="s12" d="m0 166h241v162c0 11-9 20-20 20h-201c-11 0-20-9-20-20z"/>
	<path class="s13" d="m73.4 251.6v5.7h2.3v1.4h-2.3v7h-1.6v-14.1zm-11 2.5v-1.4h7.2c-0.2 2-1.3 4.2-2.6 5.9 0.9 1.3 2.2 1.8 3.7 2.4l-0.8 1.5c-1.6-0.7-3.1-1.3-3.9-2.7-1 1.1-2.1 2.1-3.2 2.6l-0.9-1.2c2.6-1.5 4.9-4.5 5.6-7.1zm20.3 12.4c-3.6 0-4.7-1.3-4.7-2.9 0-1.5 1.1-2.9 4.7-2.9 3.7 0 4.8 1.4 4.8 2.9 0 1.6-1.1 2.9-4.8 2.9zm0-1.4c2.6 0 3.2-0.6 3.2-1.5 0-0.8-0.6-1.4-3.2-1.4-2.6 0-3.1 0.6-3.1 1.4 0 0.9 0.5 1.5 3.1 1.5zm6.5-5.5h-13.1v-1.4h5.8v-1.5h-3c-0.5 0-0.8-0.3-0.8-0.8v-4h9.2v1.4h-7.6v2h7.6v1.4h-3.8v1.5h5.7zm16.4-8.1v14.2h-1.6v-14.2zm-11.8 9.7c3.7-0.6 5.3-2.2 5.3-6.2v-1h-4.9v-1.5h6.5v2.5c0 4.6-2.1 6.8-6.4 7.6zm24.9-9.5v6.7h-8.4c-0.6 0-0.9-0.3-0.9-0.9v-5.8h1.6v2h6.1v-2zm-7.7 5.3h6.1v-1.9h-6.1zm9.6 4.1h-5.7v4.8h-1.6v-4.8h-5.8v-1.5h13.1zm3.7-0.7c-0.5 0-0.8-0.3-0.8-0.8v-3.9h7.5v-1.7h-7.5v-1.5h9.1v4.7h-7.5v1.8h8v1.4h-4.2v2.2h5.8v1.4h-13.1v-1.4h5.7v-2.2zm18.7 5.7c-0.6 0-0.9-0.3-0.9-0.8v-3.7h1.6v3.1h7.8v1.4zm8-14.5v10.3h-1.6v-3.7h-2.3v-1.5h2.3v-1.6h-2.3v-1.4h2.3v-2.1zm-12.1 0.7h7.9v1.4h-7.9zm-0.4 6.7h2.2c-0.4-1.3-0.7-2.6-0.7-4.2l1.6-0.1c0 1.5 0 2.8 0.3 4.3q0.9 0 1.9-0.1c0.3-1.5 0.3-2.7 0.3-4.2l1.5 0.1c0 1.5-0.1 2.7-0.5 4q1.2-0.2 2.4-0.4l0.2 1.5c-3.4 0.6-6.3 0.6-9.2 0.6zm25.7-7.4v5.7h2.3v1.4h-2.3v7h-1.6v-14.1zm-3 3.5v1.5h-2.1c0.8 0.5 1.3 1.2 1.3 2.4 0 2-1 3.8-3.3 3.8-2.4 0-3.4-1.8-3.4-3.8 0-1.2 0.5-1.9 1.3-2.4h-2.2v-1.5zm-4.1 6.2c1.2 0 1.7-0.9 1.7-2.3 0-1.4-0.5-2.3-1.7-2.3-1.3 0-1.8 0.9-1.8 2.3 0 1.4 0.5 2.3 1.8 2.3zm-2-9.3c1.1 0.3 3.4 0.3 4.7 0.3v1.5c-1.3 0-3.9 0-5.2-0.5zm12.1 9c3.7-0.4 4.4-2 4.4-5.6v-1h-4v-1.4h5.6v2.4q0 0.6-0.1 1.3h1.6v-4.9h1.6v13.3h-1.6v-7h-1.8c-0.5 2.5-1.9 3.8-5.2 4.3zm12.3-9.3v14.1h-1.6v-14.1z"/>
	<g id="Clip-Path" clip-path="url(#cp2)">
		<path class="s13" d="m73.4 251.6h0.3v-0.3h-0.3zm0 5.7h-0.2v0.3h0.2zm2.3 0h0.2v-0.3h-0.2zm0 1.5v0.2h0.2v-0.2zm-2.2 0v-0.3h-0.3v0.3zm0 6.9v0.3h0.3v-0.3zm-1.6 0h-0.3v0.3h0.3zm0-14.1v-0.3h-0.3v0.3zm-9.8 9.8c2.7-1.5 5.1-4.5 5.8-7.2l-0.5-0.1c-0.7 2.5-3 5.4-5.5 6.8zm0.4-8.7v-0.2h-0.3v0.2zm7.2 0l0.2 0.1v-0.3h-0.2zm-2.6 5.9l-0.2-0.1-0.1 0.1 0.1 0.2zm3.7 2.3l0.2 0.2 0.1-0.3-0.2-0.1zm-0.8 1.5l-0.1 0.2 0.2 0.1 0.1-0.2zm-3.8-2.7l0.2-0.1-0.2-0.3-0.2 0.3zm-3.2 2.5l-0.2 0.2 0.1 0.2 0.2-0.1zm-0.9-1.2l-0.2-0.3-0.2 0.2 0.2 0.2zm7.4-8.5c-0.2 2-1.2 4.1-2.5 5.8l0.3 0.3c1.4-1.8 2.5-3.9 2.7-6.1zm3.8-1v5.7h0.5v-5.7zm0.2 5.9h2.3v-0.5h-2.3zm2.1-0.2v1.4h0.5v-1.4zm0.2 1.2h-2.3v0.5h2.3zm-2.5 0.2v7h0.5v-7zm0.2 6.7h-1.6v0.5h1.6zm-1.3 0.3v-14.1h-0.5v14.1zm-0.3-13.9h1.6v-0.5h-1.6zm-9.1 2.3v-1.4h-0.5v1.4zm-0.2-1.2h7.1v-0.5h-7.1zm5.1 1.2l0.2 0.1 0.1-0.3h-0.3zm-0.8 4.6c1 1.4 2.3 1.9 3.8 2.5l0.2-0.5c-1.5-0.6-2.7-1.1-3.5-2.3zm3.6 2.1l-0.8 1.5 0.5 0.3 0.8-1.5zm-0.5 1.3c-1.7-0.6-3-1.2-3.7-2.6l-0.5 0.3c0.9 1.5 2.4 2.1 4 2.8zm-4.1-2.6c-1.1 1.1-2.2 2-3.2 2.5l0.3 0.4c1-0.5 2.2-1.4 3.2-2.6zm-2.8 2.6l-0.9-1.2-0.4 0.3 0.9 1.2zm-0.6-8.1h-0.2v0.3h0.2zm5.1-0.3h-5.1v0.5h5.1zm21.7 5.8v0.2h0.3v-0.2zm-13.1 0h-0.3v0.2h0.3zm0-1.4v-0.3h-0.3v0.3zm5.8 0v0.2h0.2v-0.2zm0-1.5h0.3v-0.2h-0.3zm-3.8-4.9v-0.2h-0.2v0.2zm9.2 0h0.3v-0.2h-0.3zm0 1.4v0.3h0.3v-0.3zm-7.7 0v-0.2h-0.2v0.2zm0 2h-0.3v0.2h0.3zm7.6 0h0.3v-0.2h-0.3zm0 1.4v0.3h0.3v-0.3zm-3.9 0v-0.2h-0.2v0.2zm0 1.5h-0.3v0.2h0.3zm5.7 0h0.3v-0.2h-0.3zm-2 5.4c0 0.7-0.2 1.4-0.9 1.9-0.6 0.4-1.8 0.8-3.6 0.8v0.5c1.9 0 3.1-0.4 3.9-0.9 0.8-0.6 1.1-1.4 1.1-2.3zm-4.5-2.6c1.8 0 2.9 0.3 3.6 0.8 0.7 0.5 0.9 1.1 0.9 1.8h0.5c0-0.8-0.3-1.6-1.1-2.2-0.8-0.6-2-0.9-3.9-0.9zm-4.5 2.6c0-0.7 0.2-1.3 0.9-1.8 0.7-0.5 1.8-0.8 3.6-0.8v-0.5c-1.8 0-3.1 0.3-3.9 0.9-0.8 0.6-1.1 1.4-1.1 2.2zm4.5 2.7c-1.8 0-2.9-0.4-3.6-0.8-0.7-0.5-0.9-1.2-0.9-1.9h-0.5c0 0.9 0.3 1.7 1.1 2.3 0.8 0.5 2.1 0.9 3.9 0.9zm-3.4-2.7q0 0.4 0.2 0.7 0.1 0.4 0.5 0.6c0.6 0.3 1.4 0.4 2.7 0.4v-0.5c-1.3 0-2-0.1-2.4-0.3q-0.3-0.2-0.4-0.4-0.1-0.2-0.1-0.5zm3.4-1.7c-1.3 0-2.1 0.2-2.7 0.5q-0.4 0.2-0.5 0.5-0.2 0.4-0.2 0.7h0.5q0-0.2 0.1-0.4 0.1-0.2 0.4-0.4c0.4-0.2 1.1-0.4 2.4-0.4zm3.4 1.7q0-0.3-0.1-0.7-0.2-0.3-0.6-0.5c-0.5-0.3-1.4-0.5-2.7-0.5v0.5c1.3 0 2 0.2 2.4 0.4q0.3 0.2 0.4 0.4 0.1 0.2 0.1 0.4zm-3.4 1.7c1.3 0 2.2-0.1 2.7-0.4q0.4-0.2 0.6-0.6 0.1-0.3 0.1-0.7h-0.5q0 0.3-0.1 0.5-0.1 0.2-0.4 0.4c-0.4 0.2-1.1 0.3-2.4 0.3zm6.5-5.9h-13.1v0.5h13.1zm-12.8 0.2v-1.4h-0.5v1.4zm-0.3-1.2h5.8v-0.5h-5.8zm6-0.2v-1.5h-0.5v1.5zm-0.2-1.7h-3v0.5h3zm-3 0q-0.3 0-0.4-0.2-0.2-0.1-0.2-0.4h-0.5q0 0.5 0.3 0.8 0.3 0.3 0.8 0.3zm-0.6-0.6v-4h-0.5v4zm-0.2-3.8h9.2v-0.5h-9.2zm9-0.2v1.4h0.5v-1.4zm0.2 1.2h-7.6v0.5h7.6zm-7.9 0.2v2h0.5v-2zm0.3 2.2h7.6v-0.5h-7.6zm7.4-0.2v1.4h0.5v-1.4zm0.2 1.2h-3.8v0.5h3.8zm-4.1 0.2v1.5h0.5v-1.5zm0.3 1.7h5.7v-0.5h-5.7zm5.5-0.2v1.4h0.5v-1.4zm16.5-6.6h0.3v-0.3h-0.3zm0 14.1v0.3h0.3v-0.3zm-1.6 0h-0.3v0.3h0.3zm0-14.1v-0.3h-0.3v0.3zm-10.1 9.6l-0.1-0.2h-0.3l0.1 0.3zm5.4-7.2h0.2v-0.3h-0.2zm-4.9 0h-0.2v0.3h0.2zm0-1.5v-0.2h-0.2v0.2zm6.4 0h0.3v-0.2h-0.3zm-6.4 10.1l-0.2 0.1v0.2l0.2-0.1zm11.1-11.1v14.2h0.5v-14.2zm0.2 13.9h-1.6v0.5h1.6zm-1.3 0.3v-14.2h-0.5v14.2zm-0.3-13.9h1.6v-0.5h-1.6zm-10.1 9.7c1.9-0.3 3.3-0.9 4.2-1.9 0.9-1.1 1.3-2.6 1.3-4.5h-0.5c0 1.9-0.4 3.2-1.2 4.1-0.8 0.9-2.1 1.5-3.9 1.8zm5.5-6.4v-1.1h-0.5v1.1zm-0.2-1.4h-4.9v0.5h4.9zm-4.6 0.3v-1.5h-0.5v1.5zm-0.3-1.2h6.5v-0.5h-6.5zm6.2-0.3v2.6h0.5v-2.6zm0 2.6c0 2.2-0.5 3.8-1.5 5-1 1.1-2.5 1.9-4.7 2.3l0.1 0.5c2.2-0.5 3.9-1.2 5-2.5 1.1-1.3 1.6-3 1.6-5.3zm-5.9 7.4l-0.5-1.4-0.5 0.2 0.5 1.4zm24.2-10.8h0.2v-0.2h-0.2zm0 6.6v0.3h0.2v-0.3zm-9.2-6.6v-0.3h-0.3v0.3zm1.6 0h0.3v-0.3h-0.3zm0 2h-0.2v0.3h0.2zm6.1 0v0.2h0.2v-0.2zm0-2v-0.3h-0.2v0.3zm-6.1 5.2h-0.2v0.3h0.2zm6.1 0v0.2h0.2v-0.2zm0-1.9h0.3v-0.3h-0.3zm-6 0v-0.2h-0.3v0.2zm9.6 6v0.2h0.3v-0.2zm-5.8 0v-0.3h-0.2v0.3zm0 4.8v0.2h0.2v-0.2zm-1.6 0h-0.2v0.2h0.2zm0-4.8h0.3v-0.2h-0.3zm-5.8 0h-0.2v0.2h0.2zm0-1.4v-0.3h-0.2v0.3zm13.1 0h0.3v-0.3h-0.3zm-2.2-7.8v6.6h0.5v-6.6zm0.3 6.4h-8.4v0.5h8.4zm-8.4 0q-0.4-0.1-0.5-0.2-0.1-0.1-0.1-0.5h-0.5q-0.1 0.5 0.2 0.9 0.4 0.3 0.9 0.3zm-0.6-0.7v-5.7h-0.5v5.7zm-0.3-5.5h1.6v-0.5h-1.6zm1.4-0.2v2h0.5v-2zm0.2 2.2h6.1v-0.5h-6.1zm6.3-0.2v-2h-0.5v2zm-0.2-1.8h1.6v-0.5h-1.6zm-6.1 5.3h6.1v-0.5h-6.1zm6.3-0.3v-1.9h-0.5v1.9zm-0.2-2.1h-6.1v0.5h6.1zm-6.3 0.2v1.9h0.5v-1.9zm9.8 5.7h-5.7v0.5h5.7zm-6 0.3v4.8h0.5v-4.8zm0.3 4.5h-1.6v0.5h1.6zm-1.4 0.3v-4.8h-0.5v4.8zm-0.2-5.1h-5.8v0.5h5.8zm-5.6 0.3v-1.5h-0.5v1.5zm-0.2-1.2h13.1v-0.5h-13.1zm12.9-0.3v1.5h0.5v-1.5zm3.1-3.9v-0.2h-0.3v0.2zm7.6 0v0.3h0.2v-0.3zm0-1.8h0.3v-0.2h-0.3zm-7.5 0h-0.3v0.2h0.3zm0-1.4v-0.3h-0.3v0.3zm9.2 0h0.2v-0.3h-0.2zm0 4.7v0.3h0.2v-0.3zm-7.5 0v-0.2h-0.3v0.2zm0 1.8h-0.2v0.3h0.2zm8.1 0h0.2v-0.3h-0.2zm0 1.4v0.3h0.2v-0.3zm-4.2 0v-0.2h-0.2v0.2zm0 2.2h-0.3v0.2h0.3zm5.7 0h0.3v-0.2h-0.3zm0 1.4v0.3h0.3v-0.3zm-13.1 0h-0.3v0.3h0.3zm0-1.5v-0.2h-0.3v0.2zm5.8 0v0.3h0.2v-0.3zm0-2.1h0.3v-0.3h-0.3zm-3-0.2q-0.3 0-0.4-0.2-0.2-0.1-0.2-0.4h-0.5q0 0.5 0.3 0.8 0.3 0.3 0.8 0.3zm-0.6-0.6v-3.8h-0.5v3.8zm-0.2-3.6h7.5v-0.5h-7.5zm7.8-0.2v-1.8h-0.5v1.8zm-0.3-2.1h-7.5v0.5h7.5zm-7.3 0.3v-1.5h-0.5v1.5zm-0.2-1.2h9.1v-0.5h-9.1zm8.9-0.3v4.7h0.5v-4.7zm0.2 4.5h-7.5v0.5h7.5zm-7.8 0.2v1.8h0.5v-1.8zm0.3 2.1h8v-0.5h-8zm7.8-0.3v1.4h0.5v-1.4zm0.2 1.2h-4.2v0.5h4.2zm-4.4 0.2v2.2h0.5v-2.2zm0.2 2.4h5.8v-0.5h-5.8zm5.5-0.2v1.4h0.5v-1.4zm0.3 1.2h-13.1v0.5h13.1zm-12.9 0.2v-1.4h-0.5v1.4zm-0.2-1.2h5.7v-0.5h-5.7zm6-0.2v-2.2h-0.5v2.2zm-0.3-2.4h-3v0.5h3zm14.9 1.4v-0.3h-0.3v0.3zm1.6 0h0.3v-0.3h-0.3zm0 3.1h-0.2v0.3h0.2zm7.7 0h0.3v-0.3h-0.3zm0 1.5v0.2h0.3v-0.2zm-0.5-14.5h0.3v-0.3h-0.3zm0 10.3v0.2h0.3v-0.2zm-1.6 0h-0.3v0.2h0.3zm0-3.7h0.2v-0.2h-0.2zm-4.3 0.8q1.2-0.1 2.4-0.4v-0.5q-1.3 0.3-2.4 0.4zm2-2.2v-0.3h-0.3v0.3zm2.2 0v0.2h0.3v-0.2zm0-1.6h0.2v-0.3h-0.2zm-2.2 0h-0.3v0.3h0.3zm0-1.5v-0.2h-0.3v0.2zm2.2 0v0.3h0.3v-0.3zm0-2.1v-0.2h-0.3v0.2zm-10.5 0.7v-0.2h-0.2v0.2zm8 0h0.2v-0.2h-0.2zm0 1.4v0.3h0.2v-0.3zm-8 0h-0.2v0.3h0.2zm-0.3 5.2v-0.2h-0.2v0.2zm2.1 0v0.2h0.3l-0.1-0.3zm-0.6-4.2v-0.3h-0.2v0.3zm1.5-0.1h0.2v-0.3l-0.2 0.1zm0.3 4.3h-0.2v0.2h0.2zm1.9-0.1v0.2h0.2l0.1-0.2zm0.3-4.2v-0.2h-0.3v0.2zm1.6 0.1h0.2v-0.2h-0.2zm-0.6 4l-0.2-0.1-0.1 0.4 0.4-0.1zm4.2-0.8h-2.2v0.5h2.2zm-1.7 1.9l0.1 0.3 0.2-0.1v-0.2zm-9.1 0.6h-0.3v0.2h0.3zm4.4 5.5q-0.4 0-0.5-0.2-0.1-0.1-0.1-0.4h-0.5q0 0.5 0.3 0.8 0.3 0.3 0.8 0.3zm-0.6-0.6v-3.7h-0.5v3.7zm-0.3-3.5h1.6v-0.5h-1.6zm1.4-0.2v3.1h0.5v-3.1zm0.2 3.3h7.8v-0.5h-7.8zm7.5-0.2v1.4h0.5v-1.4zm0.3 1.2h-8.5v0.5h8.5zm-0.8-14.3v10.3h0.5v-10.3zm0.3 10h-1.6v0.5h1.6zm-1.4 0.3v-3.7h-0.5v3.7zm-2.1-3.5h0.3l-0.1-0.3h-0.2zm-0.1-0.2v-1.4h-0.5v1.4zm-0.3-1.2h2.2v-0.5h-2.2zm2.5-0.2v-1.6h-0.5v1.6zm-0.3-1.9h-2.2v0.5h2.2zm-1.9 0.3v-1.4h-0.5v1.4zm-0.3-1.2h2.2v-0.5h-2.2zm2.5-0.2v-2.1h-0.5v2.1zm-0.3-1.9h1.6v-0.5h-1.6zm-10.5 0.7h8v-0.5h-8zm7.8-0.2v1.4h0.5v-1.4zm0.2 1.2h-8v0.5h8zm-7.7 0.2v-1.4h-0.5v1.4zm-0.6 5.5h2.1v-0.5h-2.1zm2.4-0.3c-0.4-1.4-0.6-2.6-0.6-4.2h-0.5c0 1.6 0.2 2.9 0.6 4.3zm-0.9-3.9l1.6-0.1-0.1-0.5-1.5 0.1zm1.3-0.3c0 1.5 0 2.7 0.3 4.3l0.5-0.1c-0.3-1.5-0.3-2.8-0.3-4.2zm0.6 4.5q0.9 0 1.9-0.1l-0.1-0.5q-0.9 0.1-1.9 0.1zm2.2-0.3c0.2-1.5 0.3-2.8 0.3-4.2h-0.5c0 1.4-0.1 2.7-0.3 4.1zm0.1-4l1.5 0.1v-0.5l-1.5-0.1zm1.3-0.1c0 1.4-0.2 2.6-0.6 3.9l0.5 0.1c0.4-1.3 0.6-2.5 0.6-4zm1.7 3.4h-0.2v0.2h0.2zm0.1 0.3l0.2 1.4h0.5l-0.2-1.5zm0.4 1.2c-3.3 0.6-6.3 0.6-9.1 0.6v0.5c2.8 0 5.8 0 9.2-0.6zm-8.9 0.8v-1.4h-0.5v1.4zm25.5-8.8h0.2v-0.2h-0.2zm0 5.7h-0.3v0.2h0.3zm2.3 0h0.2v-0.2h-0.2zm0 1.4v0.3h0.2v-0.3zm-2.3 0v-0.2h-0.2v0.2zm0 7v0.2h0.2v-0.2zm-1.6 0h-0.2v0.2h0.2zm0-14.1v-0.2h-0.2v0.2zm-1.4 3.6h0.2v-0.3h-0.2zm0 1.4v0.3h0.2v-0.3zm-2.1 0v-0.2h-0.8l0.7 0.5zm-4.2 0l0.2 0.2 0.7-0.5h-0.9zm-2.1 0h-0.2v0.3h0.2zm0-1.5v-0.2h-0.2v0.2zm2.2-3.2l0.1-0.2-0.3-0.1v0.3zm4.6 0.3h0.3v-0.2h-0.3zm0 1.4v0.3h0.3v-0.3zm-5.2-0.4l-0.2-0.1-0.1 0.2 0.2 0.1zm9.4-1.7v5.7h0.5v-5.7zm0.3 5.9h2.3v-0.5h-2.3zm2-0.2v1.4h0.5v-1.4zm0.3 1.2h-2.3v0.5h2.3zm-2.6 0.2v7h0.5v-7zm0.3 6.7h-1.6v0.5h1.6zm-1.4 0.3v-14.1h-0.5v14.1zm-0.2-13.9h1.6v-0.5h-1.6zm-1.7 3.3v1.5h0.5v-1.5zm0.3 1.2h-2.1v0.5h2.1zm-2.3 0.5c0.7 0.4 1.2 1.1 1.2 2.1h0.5c0-1.2-0.6-2-1.4-2.6zm1.2 2.2c0 1-0.3 1.9-0.8 2.5-0.5 0.7-1.2 1.1-2.3 1.1v0.5c1.2 0 2.1-0.5 2.7-1.3 0.6-0.7 0.9-1.7 0.9-2.8zm-3.1 3.6c-1.1 0-1.9-0.4-2.4-1.1-0.5-0.6-0.7-1.5-0.7-2.5h-0.5c0 1.1 0.3 2.1 0.8 2.8 0.6 0.8 1.6 1.3 2.8 1.3zm-3.1-3.6c0-1 0.5-1.7 1.1-2.2l-0.2-0.4c-0.8 0.5-1.4 1.4-1.4 2.6zm1-2.6h-2.1v0.5h2.1zm-1.9 0.2v-1.4h-0.5v1.4zm-0.2-1.2h8.4v-0.5h-8.4zm4.2 6.2q1 0 1.5-0.7c0.3-0.5 0.5-1.1 0.5-1.9h-0.5q0 1.1-0.4 1.6c-0.2 0.3-0.6 0.5-1.1 0.5zm2-2.6c0-0.7-0.2-1.3-0.5-1.8q-0.5-0.7-1.5-0.7v0.5c0.5 0 0.9 0.2 1.1 0.5q0.4 0.5 0.4 1.5zm-2-2.5q-1.1 0-1.6 0.7c-0.3 0.5-0.4 1.1-0.4 1.8h0.5q0-1 0.3-1.5c0.3-0.3 0.6-0.5 1.2-0.5zm-2 2.5c0 0.7 0.1 1.4 0.4 1.9q0.5 0.7 1.6 0.7v-0.5c-0.6 0-0.9-0.2-1.2-0.5q-0.3-0.6-0.3-1.6zm-0.1-6.7c0.6 0.2 1.5 0.3 2.4 0.3 0.9 0 1.8 0 2.4 0v-0.5c-0.6 0-1.5 0-2.4 0-0.9 0-1.7-0.1-2.2-0.3zm4.5 0.1v1.5h0.5v-1.5zm0.2 1.2c-0.6 0-1.5 0-2.5 0-1-0.1-1.9-0.2-2.6-0.4l-0.1 0.5c0.7 0.2 1.7 0.3 2.7 0.4 0.9 0 1.9 0 2.5 0zm-4.9-0.1l0.5-1.4-0.5-0.1-0.5 1.3zm12.4 7.6v-0.3h-0.3l0.1 0.3zm4.3-6.6h0.3v-0.2h-0.3zm-3.9 0h-0.2v0.2h0.2zm0-1.4v-0.3h-0.2v0.3zm5.5 0h0.2v-0.3h-0.2zm-0.1 3.7h-0.2v0.3h0.2zm1.6 0v0.2h0.3v-0.2zm0-4.9v-0.2h-0.3v0.2zm1.6 0h0.3v-0.2h-0.3zm0 13.3v0.3h0.3v-0.3zm-1.6 0h-0.3v0.3h0.3zm0-7.1h0.2v-0.2h-0.2zm-1.8 0v-0.3h-0.2l-0.1 0.2zm-5.2 4.3l-0.2 0.1 0.1 0.2h0.2zm11.7-10.8h0.3v-0.2h-0.3zm0 14.1v0.3h0.3v-0.3zm-1.6 0h-0.3v0.3h0.3zm0-14.2v-0.2h-0.3v0.2zm-10.6 9.6c1.9-0.2 3.1-0.7 3.7-1.7 0.7-1 0.9-2.4 0.9-4.2h-0.5c0 1.8-0.2 3.1-0.8 3.9-0.5 0.8-1.5 1.3-3.4 1.5zm4.6-5.9v-0.9h-0.5v0.9zm-0.2-1.2h-3.9v0.5h3.9zm-3.7 0.3v-1.5h-0.5v1.5zm-0.2-1.2h5.5v-0.5h-5.5zm5.2-0.3v2.4h0.5v-2.4zm0 2.4q0 0.7 0 1.3l0.5 0.1q0-0.7 0-1.4zm0.2 1.6h1.6v-0.5h-1.6zm1.8-0.3v-4.8h-0.5v4.8zm-0.2-4.6h1.6v-0.5h-1.6zm1.3-0.2v13.3h0.5v-13.3zm0.3 13.1h-1.6v0.5h1.6zm-1.4 0.2v-7h-0.5v7zm-0.2-7.3h-1.8v0.5h1.8zm-2 0.2c-0.3 1.2-0.7 2.1-1.5 2.8-0.8 0.7-1.9 1.1-3.5 1.3v0.5c1.7-0.2 2.9-0.7 3.8-1.4 0.9-0.8 1.4-1.8 1.7-3.1zm-4.8 4.3l-0.5-1.4-0.4 0.2 0.5 1.4zm11.2-10.7v14.1h0.5v-14.1zm0.3 13.9h-1.6v0.5h1.6zm-1.4 0.2v-14.1h-0.5v14.1zm-0.2-13.8h1.6v-0.5h-1.6z"/>
	</g>
	<path class="s13" d="m66.3 298.1c-0.6 0-0.9-0.3-0.9-0.9v-3h1.6v2.4h7.7v1.5zm7.9-14.5v11.2h-1.6v-1.6h-2.6v-1.3h2.6v-1.2c-1.5 0.3-3.1 0.5-4.7 0.6v2.2h-1.6v-2.1c-1.6 0.1-3 0.1-3.9 0.1l-0.2-1.4c2.3 0 6.9-0.1 10.4-0.7v-5.8zm-7.3 5.4c-2.8 0-3.6-1.3-3.6-2.6 0-1.4 0.8-2.7 3.6-2.7 2.8 0 3.6 1.3 3.6 2.7 0 1.3-0.8 2.6-3.6 2.6zm0-1.4c1.7 0 2-0.5 2-1.2 0-0.8-0.3-1.2-2-1.2-1.7 0-2 0.4-2 1.2 0 0.7 0.3 1.2 2 1.2zm20.6-4v5.7h2.3v1.4h-2.3v7h-1.6v-14.1zm-3 3.5v1.5h-2.2c0.8 0.4 1.3 1.2 1.3 2.3 0 2.1-1 3.8-3.3 3.8-2.3 0-3.4-1.7-3.4-3.8 0-1.1 0.6-1.9 1.3-2.3h-2.1v-1.5zm-4.2 6.2c1.2 0 1.7-0.9 1.7-2.4 0-1.3-0.5-2.3-1.7-2.3-1.3 0-1.7 1-1.7 2.3 0 1.4 0.4 2.4 1.7 2.4zm-2-9.4c1.1 0.4 3.5 0.4 4.7 0.4v1.5c-1.2 0-3.9 0-5.2-0.5zm14.6 14.2c-0.5 0-0.8-0.4-0.8-0.9v-3.7h1.6v3.1h8v1.5zm10.4-6.2h-13.1v-1.4h13.1zm-10.3-2.8c-0.5 0-0.8-0.3-0.8-0.8v-4.4h1.6v3.8h7.6v1.4zm17.2 8.9c-0.6 0-0.9-0.3-0.9-0.9v-4.6h9.3v5.5zm0.7-1.4h6.1v-2.7h-6.1zm9.6-5.8h-13.1v-1.4h8.9c0.6-1.2 0.7-2.6 0.6-4h-7.7v-1.5h9.4c0.1 1.9 0 3.8-0.7 5.5h2.6zm4.3 1.7h9.1v5.5h-1.6v-4.1h-7.5zm6-8.8v3.4h1.5v-3.6h1.6v8.5h-1.6v-3.5h-1.5v3.5h-1.6v-8.3zm-6 7.5c-2.3 0-3.3-1.7-3.3-3.6 0-1.8 1-3.5 3.3-3.5 2.4 0 3.3 1.7 3.3 3.5 0 1.9-0.9 3.6-3.3 3.6zm0-1.4c1.2 0 1.7-0.8 1.7-2.2 0-1.3-0.5-2.1-1.7-2.1-1.1 0-1.7 0.8-1.7 2.1 0 1.4 0.5 2.2 1.7 2.2zm17.3 8.2c-0.6 0-0.9-0.3-0.9-0.8v-4.2h1.6v3.6h7.8v1.4zm8-14.5v4.1h2.2v1.5h-2.2v4.7h-1.6v-10.3zm-4.4 0.8v1.4h-5v4.4c1.9 0 3.8 0 6.3-0.8l0.2 1.4c-3 0.8-5.1 0.9-7.2 0.8-0.6-0.1-0.9-0.4-0.9-0.9v-6.3zm19.2-0.8v14.2h-1.6v-5.7c-1.4 0.3-3.1 0.4-4.7 0.6v4.8h-1.6v-4.8c-1.5 0.1-2.9 0.1-3.9 0.1l-0.1-1.4c2.2 0 6.8-0.1 10.3-0.7v-7.1zm-7.3 6.7c-2.8 0-3.6-1.6-3.6-3.1 0-1.6 0.8-3.1 3.6-3.1 2.9 0 3.7 1.5 3.7 3.1 0 1.5-0.8 3.1-3.7 3.1zm0-1.5c1.7 0 2.1-0.6 2.1-1.6 0-1-0.4-1.7-2.1-1.7-1.6 0-2 0.7-2 1.7 0 1 0.4 1.6 2 1.6zm12 3.7c-0.5 0-0.8-0.3-0.8-0.9v-3.8h7.5v-1.8h-7.5v-1.5h9.1v4.7h-7.5v1.8h8v1.5h-4.2v2.1h5.8v1.4h-13.1v-1.4h5.7v-2.1zm-87.8 27.6c-0.5 0-0.8-0.3-0.8-0.8v-3.1h1.6v2.5h7.6v1.4zm7.9-14.5v11.3h-1.6v-1.7h-2.6v-1.2h2.6v-1.2c-1.4 0.3-3.1 0.5-4.7 0.6v2.1h-1.6v-2c-1.5 0-2.9 0.1-3.9 0.1l-0.2-1.5c2.3 0 6.9-0.1 10.4-0.7v-5.8zm-7.3 5.5c-2.8 0-3.6-1.3-3.6-2.6 0-1.4 0.8-2.7 3.6-2.7 2.8 0 3.7 1.3 3.7 2.7 0 1.3-0.9 2.6-3.7 2.6zm0-1.4c1.7 0 2.1-0.5 2.1-1.2 0-0.8-0.4-1.3-2.1-1.3-1.6 0-2 0.5-2 1.3 0 0.7 0.4 1.2 2 1.2zm20.6-4.1v5.7h2.3v1.5h-2.3v7h-1.6v-14.2zm-3 3.6v1.4h-2.1c0.7 0.5 1.2 1.3 1.2 2.4 0 2.1-1 3.8-3.3 3.8-2.3 0-3.3-1.7-3.3-3.8 0-1.1 0.5-1.9 1.2-2.4h-2.1v-1.4zm-4.2 6.2c1.3 0 1.8-1 1.8-2.4 0-1.4-0.5-2.3-1.8-2.3-1.2 0-1.7 0.9-1.7 2.3 0 1.4 0.5 2.4 1.7 2.4zm-2-9.4c1.2 0.4 3.5 0.4 4.7 0.4v1.4c-1.2 0-3.8 0-5.2-0.4zm14.7 14.1c-0.6 0-0.9-0.3-0.9-0.8v-3.7h1.6v3.1h8v1.4zm10.4-6.1h-13.1v-1.4h13.1zm-10.2-2.8c-0.6 0-0.9-0.3-0.9-0.9v-4.4h1.6v3.8h7.6v1.5zm26.6-5.6v14.1h-1.6v-14.1zm-12 9.6c2.7-2.6 3.9-5 4.3-9l1.6 0.2c-0.3 2-0.7 3.7-1.4 5.2 0.9 1.9 2 2.7 4.3 3.4l-0.7 1.5c-2.3-0.8-3.8-1.9-4.4-3.4-0.7 1-1.5 2.1-2.5 3.1zm17.3 4.8c-0.6 0-0.9-0.3-0.9-0.8v-4.2h1.6v3.6h7.7v1.4zm8-14.5v4.1h2.3v1.5h-2.3v4.7h-1.6v-10.3zm-11.1 7.1c3.7-0.5 5.3-2 5.3-4.4v-0.6h-4.9v-1.4h6.5v2c0 3-2.1 5.2-6.4 5.8zm17.2 3.3c-2.4 0-3.3-2.3-3.3-4.6 0-2.4 0.9-4.6 3.3-4.6 2.2 0 3.1 1.8 3.3 3.8h1.1v-4.8h1.6v13.3h-1.6v-7h-1.1c-0.2 2.1-1.1 3.9-3.3 3.9zm0-1.5c1.2 0 1.7-1.2 1.7-3.1 0-1.9-0.5-3.1-1.7-3.1-1.1 0-1.7 1.2-1.7 3.1 0 1.9 0.6 3.1 1.7 3.1zm9.1-8.9v14.1h-1.6v-14.1z"/>
	<g id="Clip-Path" clip-path="url(#cp3)">
		<g>
			<path class="s14" d="m123.2 235.2c3.4 0 6.1-1.2 6.1-2.7 0-1.5-2.7-2.7-6.1-2.7-3.4 0-6.1 1.2-6.1 2.7 0 1.5 2.7 2.7 6.1 2.7z"/>
			<path class="s14" d="m117.1 232.5v8.1c0 1.5 2.7 2.7 6.1 2.7 3.4 0 6.1-1.2 6.1-2.7v-8.1"/>
			<path class="s14" d="m129.3 236.5c0 1.5-2.7 2.8-6.1 2.8-3.4 0-6.1-1.3-6.1-2.8"/>
			<path class="s14" d="m123.1 227c-1.6-0.9-3.5-1.4-5.3-1.3-3.4 0-6.1 1.2-6.1 2.7 0 0.8 0.8 1.5 2 2"/>
			<path class="s14" d="m113.7 238.6c-1.2-0.5-2-1.3-2-2.1v-8.1"/>
			<path class="s14" d="m113.7 234.5c-1.2-0.5-2-1.2-2-2"/>
		</g>
	</g>
</svg>