<svg version="1.2" xmlns="http://www.w3.org/2000/svg" viewBox="0 0 241 348" width="241" height="348">
	<title>OnboardingCard1</title>
	<defs>
		<clipPath clipPathUnits="userSpaceOnUse" id="cp1">
			<path d="m0 0h241v348h-241z"/>
		</clipPath>
		<linearGradient id="g1" x2="1" gradientUnits="userSpaceOnUse" gradientTransform="matrix(324.246,249.687,-255.232,331.447,-135.399,173.112)">
			<stop offset="0" stop-color="#da9cd4" stop-opacity=".49"/>
			<stop offset="1" stop-color="#a8476a" stop-opacity="1"/>
		</linearGradient>
		<linearGradient id="g2" x2="1" gradientUnits="userSpaceOnUse" gradientTransform="matrix(266.144,178.193,-179.328,267.839,-41.087,66.875)">
			<stop offset=".19" stop-color="#ffc7d8"/>
			<stop offset=".543" stop-color="#e7427d"/>
			<stop offset="1" stop-color="#96083b"/>
		</linearGradient>
		<linearGradient id="g3" x2="1" gradientUnits="userSpaceOnUse" gradientTransform="matrix(323.755,284.324,-261.86,298.176,13.116,93.976)">
			<stop offset="0" stop-color="#ffd6fd"/>
			<stop offset=".55" stop-color="#a8477b"/>
			<stop offset="1" stop-color="#a8477b"/>
		</linearGradient>
		<linearGradient id="g4" x2="1" gradientUnits="userSpaceOnUse" gradientTransform="matrix(205.835,208.688,-174.216,171.835,-2.061,98.313)">
			<stop offset="0" stop-color="#e7b8cd" stop-opacity="1"/>
			<stop offset=".773" stop-color="#ffffff" stop-opacity="0"/>
		</linearGradient>
		<linearGradient id="g5" x2="1" gradientUnits="userSpaceOnUse" gradientTransform="matrix(117.478,87.107,-61.242,82.594,102.682,82.349)">
			<stop offset=".19" stop-color="#ee9fb7"/>
			<stop offset=".477" stop-color="#cd2b65"/>
			<stop offset="1" stop-color="#a50954"/>
		</linearGradient>
		<linearGradient id="g6" x2="1" gradientUnits="userSpaceOnUse" gradientTransform="matrix(178.242,202.733,-167.214,147.014,108.85,128.65)">
			<stop offset="0" stop-color="#ffffff"/>
			<stop offset=".406" stop-color="#ffb7de"/>
		</linearGradient>
		<linearGradient id="g7" x2="1" gradientUnits="userSpaceOnUse" gradientTransform="matrix(0,182,-241,0,120.5,166)">
			<stop offset="0" stop-color="#a8476a" stop-opacity="0"/>
			<stop offset=".216" stop-color="#a8476a" stop-opacity=".29"/>
			<stop offset=".402" stop-color="#a8476a" stop-opacity=".62"/>
			<stop offset="1" stop-color="#a8476a" stop-opacity="1"/>
		</linearGradient>
		<clipPath clipPathUnits="userSpaceOnUse" id="cp2">
			<path d="m55.5 250.75h130v16h-130zm13.25 15.24v-1.44h-7.73v-3.6h-1.6v4.18c0 0.56 0.3 0.86 0.86 0.86zm-2.08-14.51v10.29h1.6v-10.29zm-3.13 7.86v-7.01h-6.85v6.14c0 0.56 0.3 0.87 0.86 0.87zm-5.25-5.57h3.65v4.13h-3.65zm23.59 12.22v-1.39h-8.13v-0.91h7.65v-3.7h-9.25v1.39h7.65v0.9h-7.65v2.85c0 0.56 0.3 0.86 0.86 0.86zm1.46-8.45h-13.12v1.3h13.12zm-1.94-1.2v-1.44h-7.63v-1.81h7.63v-1.44h-9.23v3.83c0 0.56 0.3 0.86 0.86 0.86zm7.25-2.08v2.21h-3.76v4.48c0 0.56 0.3 0.89 0.86 0.94 1.72 0.1 3.96-0.05 5.64-0.7l-0.32-1.38c-1.3 0.56-3.09 0.69-4.58 0.64v-2.54h3.76v-5.09h-5.28v1.44zm3.34-2.62v4.84h-1.24v1.44h1.24v7.04h1.6v-13.32zm3.17-0.16v14.12h1.6v-14.12zm14.88 14.51v-1.35h-8.13v-0.73h7.65v-3.44h-9.25v1.34h7.65v0.74h-7.65v2.57c0 0.56 0.31 0.87 0.87 0.87zm1.45-7.81h-13.12v1.3h13.12zm-1.57-0.87v-1.36h-8.04v-0.81h7.56v-3.56h-9.16v1.36h7.56v0.82h-7.56v2.69c0 0.56 0.3 0.86 0.86 0.86zm13.67 4.72c-1.56 1.27-4.55 2.4-6.96 2.82l0.48 1.37c1.63-0.36 3.42-0.96 5.04-1.68 1.34 0.96 3.04 1.7 5.45 1.78l0.23-1.58c-2-0.07-3.16-0.37-4.12-0.95 1.81-0.99 3.19-2.11 3.49-3.2h-9.89v1.44zm1.81-10.56v8.21h1.6v-3.46h2.29v-1.44h-2.29v-3.31zm-4.76 3.78c-0.65 1.13-2.61 2.48-4.95 3.2l0.74 1.28c1.08-0.39 2.24-0.95 3.28-1.63 0.91 0.94 1.85 1.36 3.61 1.76l0.51-1.57c-1.34-0.31-2.32-0.5-3.05-0.98 1.29-1.05 2.22-2.29 2.27-3.5h-7.01v1.44zm-3.6-2.58c1.2 0.34 4.21 0.34 5.31 0.34v-1.44c-1.1 0-3.85 0-4.86-0.29zm22.45-1.2v14.13h1.6v-6.98h2.28v-1.44h-2.28v-5.71zm-2.13 5.7c0-2.58-1.09-4.82-3.76-4.82-2.67 0-3.78 2.24-3.78 4.82 0 2.59 1.09 4.84 3.78 4.84 2.67 0 3.76-2.25 3.76-4.84zm-5.94 0c0-1.99 0.64-3.38 2.18-3.38 1.52 0 2.16 1.39 2.16 3.38 0 2-0.64 3.4-2.16 3.4-1.54 0-2.18-1.4-2.18-3.4zm21.98-4.87v2.35h-6.08v-2.35h-1.6v6.43c0 0.56 0.31 0.87 0.87 0.87h2.99v2.83h-5.76v1.44h13.12v-1.44h-5.76v-2.83h3.82v-7.3zm-6.07 3.7h6.07v2.16h-6.07zm11.4 5.77c0.82-0.75 1.44-1.53 1.94-2.32 0.53 1.16 1.53 1.99 3.52 2.64l0.64-1.48c-1.97-0.61-2.69-1.24-3.36-2.71 0.64-1.6 0.93-3.34 1.18-5.29l-1.53-0.16c-0.45 3.56-0.9 5.93-3.57 8.36zm6.86-10.14v4.85h-2.11v1.44h2.11v7.04h1.6v-13.33zm3.17-0.16v14.13h1.6v-14.13zm14.57 4.42c0-1.92-1.08-3.65-4.81-3.65-3.76 0-4.83 1.73-4.83 3.65 0 1.85 1.07 3.6 4.83 3.6 3.73 0 4.81-1.73 4.81-3.6zm-8.04 0c-0.01-1.33 0.59-2.21 3.23-2.21 2.61 0 3.21 0.88 3.21 2.21 0 1.26-0.6 2.16-3.21 2.16-2.63 0-3.24-0.9-3.24-2.16zm9.81 6.54h-3.4v-2.61h-1.61v2.61h-2.99v-2.61h-1.6v2.61h-3.52v1.44h13.12z"/>
		</clipPath>
		<clipPath clipPathUnits="userSpaceOnUse" id="cp3">
			<path d="m112 226h18v18h-18z"/>
		</clipPath>
	</defs>
	<style>
		.s0 { opacity: .3;fill: #ffffff } 
		.s1 { opacity: .3;fill: none;stroke: #ffffff } 
		.s2 { fill: url(#g1) } 
		.s3 { opacity: .6;fill: url(#g2) } 
		.s4 { opacity: .25;fill: url(#g3) } 
		.s5 { opacity: .5;fill: none;stroke: url(#g4) } 
		.s6 { opacity: .6;fill: url(#g5) } 
		.s7 { opacity: .5;fill: url(#g6) } 
		.s8 { fill: url(#g7) } 
		.s9 { fill: #fbf9f4 } 
		.s10 { fill: none;stroke: #fbf9f4;stroke-linecap: round;stroke-linejoin: round } 
	</style>
	<g>
		<path class="s0" d="m0 20c0-11 9-20 20-20h201c11 0 20 9 20 20v308c0 11-9 20-20 20h-201c-11 0-20-9-20-20z"/>
		<path class="s1" d="m0.5 20c0-10.8 8.7-19.5 19.5-19.5h201c10.8 0 19.5 8.7 19.5 19.5v308c0 10.8-8.7 19.5-19.5 19.5h-201c-10.8 0-19.5-8.7-19.5-19.5z"/>
	</g>
	<g id="Clip-Path" clip-path="url(#cp1)">
		<g>
			<g style="opacity: .5">
				<path fill-rule="evenodd" class="s2" d="m103.4 369.7l6.2-7.9 9.2-12.3 11.2-15.5 12.3-17.9 12.6-19.4 12.2-20.3 11-20.4 9.2-20.1 7.1-19.4 4.3-18.3 1.2-16.9-1.5-16-3-15.9-4.5-15.6-8-17-8.2-14-9.2-13.3-10.2-12.4-11.1-11.4-12-10.1-12.8-8.8-13.5-7.2-13.8-5.4-13.4-3.1-13.1-1.1-12.5 1.1-11.9 3.1-10.9 5.2-10 7.3-8.8 9.3-7.3 11.4-5.8 13.3-4 15.2-1.9 17 1.1 9.3 4.3 21.6 7.6 28.2 10.9 30.4 13 30.3 13.9 31.2 14.3 28.7 13.6 25.9 11.9 22.1 9.5 17 6.3 11.1 2.3 3.9z"/>
				<path fill-rule="evenodd" class="s3" d="m5 65.9l7.4-11.2 8.9-9.2 9.9-7.3 8.6-6-10 7.3 10-7.3 8.8-6.2 8.8-6.2 9.1-6.4-9.7 7.9-8.6 8.7-7.6 11.9-5.4 13-2.3 8q-2.1 7.2-3 14.6c-0.8 6.2-0.9 12.5-0.5 18.7l0.2 2.1q0.7 9 2.7 17.7l3.6 16 9.1 28 11.6 29.9 13.4 30.7 14.3 30.2 14.3 28.7 13.6 25.9 11.9 22 9.7 17 6.5 10.8 2.2 4.4-10.9 3.3-10.2 3.5-10.2 3.3-9.9 3.3-2.2-3.8-6-10.6-9.2-16.4-11.5-21.2-13-24.9-13.8-27.6-13.7-29.1-12.8-29.5-11.1-28.9-8.6-26.9-3.4-15.2q-1.9-8.8-2.5-17.7v-1.4c-0.4-6.3-0.2-12.6 0.6-18.9q0.9-7.1 2.8-14l0.1-0.3q2.1-7.7 5.4-15z"/>
				<g>
					<path fill-rule="evenodd" class="s4" d="m144.2 356.6l6.2-8 9.2-12.2 11.2-15.5 12.4-17.9 12.6-19.4 12.1-20.3 11-20.4 9.3-20.2 7-19.3 4.4-18.3 1.1-16.9-1.5-16-3-15.9-4.4-15.6-5.8-15.2-7-14.7-8.2-14-9.2-13.3-10.2-12.4-11.1-11.4-12-10.1-12.8-8.8-13.5-7.3-13.8-5.3-13.5-3.1-13-1.1-12.5 1-11.9 3.2-11 5.2-9.9 7.3-8.8 9.3-7.4 11.4-5.7 13.3-4 15.1-1.9 17 1.5 20.5 5.7 24.7 9 28 11.7 29.9 13.4 30.7 14.2 30.2 14.4 28.7 13.5 25.9 11.9 22 9.5 17.1 6.3 11 2.3 4z"/>
					<path class="s5" d="m142 358.6l-1.9-3.3-6.2-11-9.5-17.1-12-22-13.5-25.9-14.3-28.7-14.3-30.2-13.4-30.7-11.6-29.9-9.1-27.9-5.6-24.7-1.5-20.3 1.9-17 3.9-15.1 5.8-13.2 7.3-11.3 8.7-9.2 9.9-7.3 10.9-5.1 11.7-3.2 12.5-1 13 1.1 13.4 3.1 13.7 5.3 13.4 7.2 12.8 8.7 11.9 10.2 11.1 11.3 10.2 12.4 9.2 13.2 8.1 14 7 14.7 5.8 15.2 4.4 15.5 3 15.8 1.5 16-1.1 16.8-4.3 18.2-7.1 19.3-9.3 20.1-11 20.5-12.1 20.2-12.6 19.5-12.3 17.8-11.2 15.5-9.2 12.2-6.1 8h-0.1z"/>
				</g>
				<g>
					<path fill-rule="evenodd" class="s6" d="m113.9 79.5l5.3-3.6-4.2 3-3.7 3.6-3.1 4.2-2.6 4.9-2 5.3-6.5 9.3 1.2-5.8 2-5.3 2.5-4.8 3.2-4.2 3.7-3.7zm42.3 87l-5.3 1.1-5.5 0.3-5.8-0.6-5.8-1.5-5.6-2.2-5.4-3-5-3.6-4.6-4.2-4.1-4.8-3.7-5.2-3.1-5.6-2.5-5.9-1.8-6.1-1.1-6.3 5.1-9.8 0.3 6.4 1.1 6.4 1.8 6.1 2.5 6 3.1 5.6 3.7 5.3 4.2 4.8 4.6 4.2 5.1 3.7 5.3 3 5.7 2.2 5.8 1.5 5.9 0.6 5.5-0.2 5.2-1.1 4.9-1.9-5.7 3zm-59.5-54.1l0.3 6.4 5-9.8 0.5-6.2 1.2-5.9-6.5 9.3z"/>
					<path fill-rule="evenodd" class="s7" d="m185.3 113.5l1.2 6 0.4 6.3-0.3 6.1-1 5.7-1.7 5.3-2.4 4.9-2.9 4.3-3.5 3.8-4 3.2-4.4 2.6-4.9 1.8-5.2 1.1-5.6 0.2-11.7-2-5.6-2.3-5.4-3-5-3.7-4.7-4.2-4.1-4.8-3.7-5.2-3.1-5.7-2.5-5.9-1.9-6.2-1.1-6.4-0.3-6.4 0.5-6.3 1.2-5.8 2-5.3 2.6-4.9 3.1-4.2 3.7-3.6 4.2-3 4.6-2.3 4.9-1.6 5.3-0.8h5.5l5.7 0.8 5.7 1.7 5.4 2.3 5.1 3.1 4.8 3.6 4.4 4.1 4 4.6 3.5 5.1 3 5.4 2.4 5.6zm-40.1 50.8l5.8 0.6-11.7-2z"/>
				</g>
			</g>
		</g>
	</g>
	<path class="s8" d="m0 166h241v162c0 11-9 20-20 20h-201c-11 0-20-9-20-20z"/>
	<path class="s9" d="m60.3 266c-0.6 0-0.9-0.3-0.9-0.9v-4.1h1.6v3.6h7.7v1.4zm8-14.5v10.3h-1.6v-10.3zm-10.7 7.8c-0.5 0-0.9-0.3-0.9-0.8v-6.2h6.9v7zm0.7-1.4h3.7v-4.1h-3.7zm14.7 8.1c-0.5 0-0.8-0.3-0.8-0.9v-2.8h7.6v-0.9h-7.6v-1.4h9.2v3.7h-7.6v0.9h8.1v1.4zm10.3-7.2h-13.1v-1.3h13.1zm-10.3-2.5c-0.5 0-0.8-0.3-0.8-0.8v-3.9h9.2v1.5h-7.6v1.8h7.6v1.4zm11.9-2.1v-1.4h5.3v5.1h-3.7v2.5c1.4 0.1 3.2 0 4.5-0.6l0.3 1.4c-1.6 0.6-3.9 0.8-5.6 0.7-0.5-0.1-0.8-0.4-0.8-1v-4.5h3.7v-2.2zm8.6-2.6v13.3h-1.6v-7h-1.2v-1.4h1.2v-4.9zm3.2-0.1v14.1h-1.6v-14.1zm4.4 14.5c-0.5 0-0.8-0.3-0.8-0.9v-2.6h7.6v-0.7h-7.6v-1.4h9.2v3.5h-7.6v0.7h8.1v1.4zm10.3-6.5h-13.1v-1.3h13.1zm-10.4-2.2c-0.5 0-0.8-0.3-0.8-0.9v-2.7h7.6v-0.8h-7.6v-1.3h9.2v3.5h-7.6v0.8h8v1.4zm16.2 4.7v-1.4h9.9c-0.3 1.1-1.7 2.2-3.5 3.2 1 0.6 2.1 0.9 4.1 0.9l-0.2 1.6c-2.4-0.1-4.1-0.8-5.5-1.8-1.6 0.8-3.4 1.3-5 1.7l-0.5-1.4c2.4-0.4 5.4-1.5 7-2.8zm9.7-10.5v3.3h2.3v1.4h-2.3v3.5h-1.6v-8.2zm-11 3.7v-1.4h7c0 1.2-1 2.4-2.3 3.5 0.8 0.5 1.8 0.7 3.1 1l-0.5 1.5c-1.8-0.4-2.7-0.8-3.6-1.7-1.1 0.7-2.2 1.2-3.3 1.6l-0.7-1.3c2.3-0.7 4.3-2 4.9-3.2zm1.4-3.9c1 0.3 3.8 0.3 4.9 0.3v1.4c-1.1 0-4.1 0-5.3-0.3zm23.6 0.2v5.7h2.3v1.4h-2.3v7h-1.6v-14.1zm-7.5 10.5c-2.7 0-3.8-2.3-3.8-4.9 0-2.5 1.1-4.8 3.8-4.8 2.7 0 3.8 2.3 3.8 4.8 0 2.6-1.1 4.9-3.8 4.9zm0-1.4c1.5 0 2.2-1.5 2.2-3.5 0-1.9-0.7-3.3-2.2-3.3-1.5 0-2.2 1.4-2.2 3.3 0 2 0.7 3.5 2.2 3.5zm21.4-8.3v7.3h-3.8v2.8h5.7v1.5h-13.1v-1.5h5.8v-2.8h-3c-0.6 0-0.9-0.3-0.9-0.9v-6.4h1.6v2.3h6.1v-2.3zm-7.7 5.8h6.1v-2.1h-6.1zm10.2 2.6c2.7-2.4 3.2-4.8 3.6-8.3l1.5 0.1c-0.2 2-0.5 3.7-1.1 5.3 0.6 1.5 1.4 2.1 3.3 2.7l-0.6 1.5c-2-0.6-3-1.5-3.5-2.6-0.5 0.8-1.2 1.5-2 2.3zm9.7-9.2v13.3h-1.6v-7h-2.1v-1.4h2.1v-4.9zm3.1-0.1v14.1h-1.6v-14.1zm8.2 8c-3.8 0-4.8-1.8-4.8-3.6 0-2 1-3.7 4.8-3.7 3.7 0 4.8 1.7 4.8 3.7 0 1.8-1.1 3.6-4.8 3.6zm0-1.5c2.6 0 3.2-0.9 3.2-2.1 0-1.4-0.6-2.2-3.2-2.2-2.6 0-3.2 0.8-3.2 2.2 0 1.2 0.6 2.1 3.2 2.1zm6.6 5.9h-13.1v-1.5h3.5v-2.6h1.6v2.6h3v-2.6h1.6v2.6h3.4z"/>
	<g id="Clip-Path" clip-path="url(#cp2)">
		<path class="s9" d="m59.4 261v-0.3h-0.2v0.3zm1.6 0h0.2v-0.3h-0.2zm0 3.6h-0.3v0.3h0.3zm7.7 0h0.2v-0.3h-0.2zm0 1.4v0.3h0.2v-0.3zm-0.4-14.5h0.2v-0.2h-0.2zm0 10.3v0.2h0.2v-0.2zm-1.6 0h-0.2v0.2h0.2zm0-10.3v-0.2h-0.2v0.2zm-10 0.9v-0.3h-0.3v0.3zm6.9 0h0.2v-0.3h-0.2zm0 7v0.3h0.2v-0.3zm-5.2-1.4h-0.3v0.2h0.3zm3.6 0v0.3h0.3v-0.3zm0-4.1h0.2v-0.2h-0.2zm-3.7 0v-0.3h-0.2v0.3zm2 11.9q-0.4 0-0.5-0.1-0.1-0.1-0.1-0.5h-0.5q0 0.5 0.3 0.8 0.3 0.4 0.8 0.3zm-0.6-0.6v-4.1h-0.5v4.1zm-0.3-3.9h1.6v-0.5h-1.6zm1.4-0.2v3.6h0.5v-3.6zm0.2 3.8h7.7v-0.5h-7.7zm7.5-0.2v1.4h0.5v-1.4zm0.2 1.1h-8.4v0.5h8.4zm-0.7-14.2v10.3h0.5v-10.3zm0.3 10h-1.6v0.5h1.6zm-1.4 0.3v-10.3h-0.5v10.3zm-0.2-10.1h1.6v-0.5h-1.6zm-9.2 7.4q-0.3 0-0.4-0.2-0.2-0.1-0.2-0.4h-0.5q0 0.5 0.3 0.8 0.3 0.3 0.8 0.3zm-0.6-0.6v-6.2h-0.5v6.2zm-0.2-5.9h6.8v-0.5h-6.8zm6.6-0.3v7h0.5v-7zm0.2 6.8h-6v0.5h6zm-5.2-1h3.6v-0.5h-3.6zm3.9-0.2v-4.1h-0.5v4.1zm-0.3-4.4h-3.6v0.5h3.6zm-3.9 0.3v4.1h0.5v-4.1zm14.1 8.5v-0.3h-0.2v0.3zm7.6 0v0.2h0.3v-0.2zm0-0.9h0.2v-0.3h-0.2zm-7.7 0h-0.2v0.3h0.2zm0-1.4v-0.3h-0.2v0.3zm9.2 0h0.3v-0.3h-0.3zm0 3.7v0.3h0.3v-0.3zm-7.7 0v-0.2h-0.2v0.2zm0 1h-0.3v0.2h0.3zm8.1 0h0.3v-0.2h-0.3zm0 1.3v0.3h0.3v-0.3zm1.4-7.1v0.2h0.3v-0.2zm-13.1 0h-0.3v0.2h0.3zm0-1.3v-0.2h-0.3v0.2zm13.1 0h0.3v-0.2h-0.3zm-11.1-5.9v-0.2h-0.3v0.2zm9.2 0h0.3v-0.2h-0.3zm0 1.4v0.2h0.3v-0.2zm-7.6 0v-0.3h-0.3v0.3zm0 1.8h-0.2v0.3h0.2zm7.6 0h0.3v-0.3h-0.3zm0 1.4v0.3h0.3v-0.3zm-8.4 9.4q-0.3 0-0.5-0.1-0.1-0.1-0.1-0.5h-0.5q0 0.5 0.3 0.8 0.3 0.4 0.8 0.3zm-0.6-0.6v-2.8h-0.5v2.8zm-0.3-2.6h7.7v-0.5h-7.7zm7.9-0.2v-0.9h-0.5v0.9zm-0.2-1.2h-7.7v0.5h7.7zm-7.4 0.3v-1.4h-0.5v1.4zm-0.3-1.2h9.3v-0.5h-9.3zm9-0.2v3.7h0.5v-3.7zm0.3 3.4h-7.7v0.5h7.7zm-7.9 0.3v0.9h0.5v-0.9zm0.2 1.2h8.2v-0.5h-8.2zm7.9-0.3v1.4h0.5v-1.4zm0.3 1.1h-8.9v0.5h8.9zm1.4-7.1h-13.1v0.5h13.1zm-12.8 0.2v-1.3h-0.5v1.3zm-0.3-1h13.1v-0.5h-13.1zm12.9-0.3v1.3h0.5v-1.3zm-10.1-1.4q-0.3 0-0.4-0.2-0.2-0.1-0.2-0.4h-0.5q0 0.5 0.3 0.8 0.3 0.3 0.8 0.3zm-0.6-0.6v-3.8h-0.5v3.8zm-0.2-3.6h9.2v-0.5h-9.2zm8.9-0.2v1.4h0.5v-1.4zm0.3 1.1h-7.6v0.5h7.6zm-7.9 0.3v1.8h0.5v-1.8zm0.3 2.1h7.6v-0.5h-7.6zm7.3-0.3v1.4h0.5v-1.4zm0.3 1.2h-8.4v0.5h8.4zm3.6-1.8h-0.3v0.2h0.3zm0-1.4v-0.3h-0.3v0.3zm5.3 0h0.2v-0.3h-0.2zm0 5.1v0.3h0.2v-0.3zm-3.7 0v-0.2h-0.3v0.2zm0 2.6h-0.2v0.2h0.2zm4.6-0.6l0.2-0.1v-0.3l-0.3 0.1zm0.3 1.4l0.1 0.2h0.2v-0.2zm-5.7 0.4q-0.3 0-0.4-0.2-0.2-0.1-0.2-0.5h-0.5q0 0.5 0.3 0.8 0.3 0.4 0.8 0.4zm-0.9-5.2v-0.2h-0.2v0.2zm3.7 0v0.3h0.3v-0.3zm0-2.2h0.2v-0.2h-0.2zm4.9-2.6h0.3v-0.3h-0.3zm0 13.3v0.3h0.3v-0.3zm-1.6 0h-0.3v0.3h0.3zm0-7.1h0.2v-0.2h-0.2zm-1.3 0h-0.2v0.2h0.2zm0-1.4v-0.2h-0.2v0.2zm1.2 0v0.3h0.3v-0.3zm0-4.8v-0.3h-0.3v0.3zm4.8-0.2h0.2v-0.3h-0.2zm0 14.2v0.2h0.2v-0.2zm-1.6 0h-0.2v0.2h0.2zm0-14.1v-0.3h-0.2v0.3zm-10 2.8v-1.5h-0.5v1.5zm-0.2-1.2h5.3v-0.5h-5.3zm5-0.3v5.1h0.5v-5.1zm0.3 4.9h-3.8v0.5h3.8zm-4 0.2v2.6h0.5v-2.6zm0.2 2.8c1.5 0.1 3.3-0.1 4.7-0.6l-0.2-0.5c-1.3 0.5-3 0.7-4.5 0.6zm4.4-0.8l0.3 1.4 0.5-0.2-0.3-1.3zm0.4 1.1c-1.6 0.6-3.8 0.7-5.5 0.6v0.5c1.7 0.1 4 0 5.7-0.7zm-5.5 1l-0.1 0.2h0.1zm-0.7-0.9v-4.5h-0.5v4.5zm-0.2-4.3h3.7v-0.5h-3.7zm4-0.2v-2.2h-0.5v2.2zm-0.3-2.5h-3.6v0.5h3.6zm4.7-2.3v13.3h0.5v-13.3zm0.3 13h-1.6v0.5h1.6zm-1.4 0.3v-7.1h-0.5v7.1zm-0.2-7.3h-1.3v0.5h1.3zm-1 0.2v-1.4h-0.5v1.4zm-0.3-1.1h1.3v-0.5h-1.3zm1.5-0.3v-4.8h-0.5v4.8zm-0.2-4.6h1.6v-0.5h-1.6zm4.5-0.4v14.1h0.5v-14.1zm0.3 13.9h-1.6v0.5h1.6zm-1.4 0.2v-14.1h-0.5v14.1zm-0.2-13.9h1.6v-0.5h-1.6zm5.1 10.9v-0.3h-0.2v0.3zm7.6 0v0.2h0.3v-0.2zm0-0.8h0.2v-0.2h-0.2zm-7.7 0h-0.2v0.2h0.2zm0-1.3v-0.3h-0.2v0.3zm9.2 0h0.3v-0.3h-0.3zm0 3.5v0.2h0.3v-0.2zm-7.7 0v-0.3h-0.2v0.3zm0 0.7h-0.3v0.3h0.3zm8.1 0h0.2v-0.3h-0.2zm0 1.4v0.2h0.2v-0.2zm1.5-6.6v0.3h0.2v-0.3zm-13.1 0h-0.2v0.3h0.2zm0-1.3v-0.3h-0.2v0.3zm13.1 0h0.2v-0.3h-0.2zm-11.2-4.4v-0.2h-0.3v0.2zm7.6 0v0.3h0.2v-0.3zm0-0.8h0.3v-0.2h-0.3zm-7.5 0h-0.3v0.2h0.3zm0-1.3v-0.3h-0.3v0.3zm9.2 0h0.2v-0.3h-0.2zm0 3.6v0.2h0.2v-0.2zm-7.5 0v-0.3h-0.3v0.3zm0 0.8h-0.2v0.2h0.2zm8.1 0h0.2v-0.2h-0.2zm0 1.3v0.3h0.2v-0.3zm-8.7 8.5q-0.4-0.1-0.5-0.2-0.1-0.1-0.1-0.5h-0.5q0 0.5 0.3 0.9 0.3 0.3 0.8 0.3zm-0.6-0.7v-2.5h-0.5v2.5zm-0.3-2.3h7.7v-0.5h-7.7zm7.9-0.2v-0.8h-0.5v0.8zm-0.2-1h-7.7v0.5h7.7zm-7.4 0.2v-1.3h-0.5v1.3zm-0.3-1.1h9.3v-0.5h-9.3zm9-0.2v3.4h0.5v-3.4zm0.3 3.2h-7.7v0.5h7.7zm-7.9 0.2v0.8h0.5v-0.8zm0.2 1h8.1v-0.5h-8.1zm7.9-0.2v1.3h0.5v-1.3zm0.2 1.1h-8.8v0.5h8.8zm1.5-6.6h-13.1v0.5h13.1zm-12.9 0.3v-1.3h-0.5v1.3zm-0.2-1.1h13.1v-0.5h-13.1zm12.8-0.2v1.3h0.5v-1.3zm-10.1-1.1q-0.3 0-0.4-0.2-0.2-0.1-0.2-0.4h-0.5q0 0.5 0.3 0.8 0.3 0.3 0.8 0.3zm-0.6-0.6v-2.7h-0.5v2.7zm-0.2-2.5h7.5v-0.5h-7.5zm7.8-0.2v-0.8h-0.5v0.8zm-0.3-1.1h-7.5v0.5h7.5zm-7.3 0.3v-1.4h-0.5v1.4zm-0.2-1.1h9.1v-0.5h-9.1zm8.9-0.3v3.6h0.5v-3.6zm0.2 3.3h-7.5v0.5h7.5zm-7.8 0.3v0.8h0.5v-0.8zm0.3 1h8v-0.5h-8zm7.8-0.2v1.3h0.5v-1.3zm0.2 1.1h-8.8v0.5h8.8zm6.8 8c2.4-0.4 5.5-1.6 7-2.9l-0.3-0.3c-1.5 1.2-4.4 2.3-6.8 2.7zm0.6-4.5v-0.2h-0.2v0.2zm9.9 0l0.2 0.1 0.1-0.3h-0.3zm-3.5 3.2l-0.1-0.2-0.4 0.2 0.4 0.2zm4.1 0.9l0.2 0.1 0.1-0.3h-0.3zm-0.2 1.6l-0.1 0.2h0.3v-0.2zm-5.5-1.8l0.2-0.2-0.1-0.1-0.2 0.1zm-5 1.7l-0.2 0.1v0.2l0.3-0.1zm-0.5-1.4l-0.1-0.2h-0.3l0.1 0.3zm7-2.8l0.2 0.2 0.5-0.4h-0.7zm3.4-10.6h0.3v-0.3h-0.3zm0 3.4h-0.2v0.2h0.2zm2.3 0h0.2v-0.2h-0.2zm0 1.4v0.3h0.2v-0.3zm-2.2 0v-0.2h-0.3v0.2zm0 3.5v0.2h0.3v-0.2zm-1.6 0h-0.3v0.2h0.3zm0-8.2v-0.3h-0.3v0.3zm-9.6 7.2c1.2-0.4 2.3-0.9 3.1-1.5 0.9-0.5 1.6-1.2 2-1.8l-0.5-0.2c-0.3 0.5-0.9 1.1-1.7 1.6-0.9 0.6-1.9 1.1-3.1 1.4zm0.3-4.8v-0.3h-0.3v0.3zm7.1 0h0.2v-0.3h-0.2zm-2.3 3.5l-0.2-0.2-0.2 0.2 0.3 0.2zm3 1l0.2 0.1 0.1-0.3h-0.2zm-0.6 1.5v0.3h0.2l0.1-0.2zm-3.6-1.8l0.2-0.1-0.2-0.2-0.2 0.1zm-3.2 1.7l-0.3 0.1 0.1 0.2 0.2-0.1zm-0.7-1.3l-0.1-0.2-0.3 0.1 0.2 0.2zm7.1-4.6c0 1.1-0.9 2.3-2.2 3.3l0.3 0.4c1.3-1.1 2.3-2.4 2.4-3.7zm-5.3-2.5v-0.3h-0.2l-0.1 0.2zm4.9 0.3h0.3v-0.2h-0.3zm0 1.4v0.2h0.3v-0.2zm-5.4-0.3l-0.2-0.1-0.1 0.2 0.3 0.1zm0.5 9.4v-1.5h-0.5v1.5zm-0.2-1.2h9.8v-0.5h-9.8zm9.6-0.4q-0.2 0.8-1.1 1.6c-0.6 0.5-1.4 1-2.3 1.5l0.3 0.4c0.9-0.5 1.7-1 2.3-1.6 0.7-0.5 1.1-1.1 1.3-1.7zm-3.4 3.5c1 0.6 2.2 0.9 4.2 0.9l0.1-0.5c-2 0-3.1-0.3-4-0.9zm4 0.7l-0.3 1.6 0.5 0.1 0.3-1.6zm0 1.4c-2.4-0.1-4-0.8-5.3-1.8l-0.3 0.4c1.4 1 3.1 1.8 5.6 1.9zm-5.6-1.8c-1.6 0.7-3.4 1.3-5 1.7l0.1 0.5c1.7-0.4 3.5-1 5.1-1.7zm-4.7 1.8l-0.5-1.4-0.4 0.2 0.4 1.4zm0-4.1h-0.2v0.2h0.2zm6.3-0.2h-6.3v0.5h6.3zm3.1-10.4v3.4h0.5v-3.4zm0.3 3.6h2.3v-0.5h-2.3zm2-0.2v1.4h0.5v-1.4zm0.3 1.1h-2.3v0.5h2.3zm-2.6 0.3v3.5h0.5v-3.5zm0.3 3.2h-1.6v0.5h1.6zm-1.4 0.3v-8.3h-0.5v8.3zm-0.2-8h1.6v-0.5h-1.6zm-9.1 3.5v-1.4h-0.5v1.4zm-0.3-1.2h7v-0.5h-7zm4.6 1.2l0.2 0.1 0.2-0.3h-0.4zm0 2.2c0.8 0.6 1.8 0.8 3.2 1.1l0.1-0.5c-1.4-0.3-2.3-0.5-3-1zm3 0.7l-0.6 1.6 0.5 0.1 0.5-1.5zm-0.2 1.4c-1.7-0.4-2.6-0.8-3.5-1.7l-0.3 0.3c0.9 1 1.9 1.5 3.7 1.9zm-3.8-1.8c-1 0.7-2.2 1.3-3.2 1.6l0.1 0.5c1.1-0.4 2.3-1 3.4-1.7zm-3 1.8l-0.7-1.3-0.4 0.2 0.7 1.3zm-0.6-4.3h-0.2v0.2h0.2zm4.6-0.2h-4.6v0.5h4.6zm-3.2-3.5c0.5 0.1 1.5 0.2 2.4 0.2 1 0.1 2 0.1 2.5 0.1v-0.5c-0.5 0-1.5 0-2.4-0.1-1 0-1.9-0.1-2.4-0.2zm4.7 0v1.5h0.5v-1.5zm0.2 1.2c-0.5 0-1.5 0-2.6 0-1 0-2-0.1-2.6-0.3l-0.1 0.5c0.6 0.2 1.7 0.3 2.7 0.3 1.1 0 2.1 0 2.6 0zm-5 0l0.4-1.4-0.5-0.1-0.4 1.4zm23.8-1.3h0.3v-0.3h-0.3zm0 5.8h-0.2v0.2h0.2zm2.3 0h0.2v-0.2h-0.2zm0 1.4v0.2h0.2v-0.2zm-2.2 0v-0.3h-0.3v0.3zm0 7v0.2h0.3v-0.2zm-1.6 0h-0.3v0.2h0.3zm0-14.1v-0.3h-0.3v0.3zm1.4 0v5.7h0.5v-5.7zm0.2 6h2.3v-0.5h-2.3zm2-0.3v1.4h0.5v-1.4zm0.3 1.2h-2.3v0.5h2.3zm-2.5 0.2v7h0.5v-7zm0.2 6.8h-1.6v0.5h1.6zm-1.3 0.2v-14.1h-0.5v14.1zm-0.3-13.9h1.6v-0.5h-1.6zm-2.4 5.5c0 1.3-0.2 2.4-0.8 3.2-0.6 0.9-1.4 1.4-2.7 1.4v0.5c1.4 0 2.5-0.6 3.1-1.6 0.7-0.9 0.9-2.2 0.9-3.5zm-3.5-4.6c1.3 0 2.1 0.5 2.7 1.4 0.6 0.8 0.8 1.9 0.8 3.2h0.5c0-1.3-0.2-2.6-0.9-3.5-0.6-1-1.7-1.6-3.1-1.6zm-3.5 4.6c0-1.3 0.3-2.4 0.8-3.2 0.6-0.9 1.5-1.4 2.7-1.4v-0.5c-1.4 0-2.4 0.6-3.1 1.6-0.6 0.9-0.9 2.2-0.9 3.5zm3.5 4.6c-1.2 0-2.1-0.5-2.7-1.4-0.5-0.8-0.8-1.9-0.8-3.2h-0.5c0 1.3 0.3 2.6 0.9 3.5 0.7 1 1.7 1.6 3.1 1.6zm-2.4-4.6c0 1 0.2 1.9 0.5 2.6 0.4 0.6 1.1 1.1 1.9 1.1v-0.5c-0.7 0-1.1-0.3-1.4-0.9-0.3-0.5-0.5-1.3-0.5-2.3zm2.4-3.6c-0.8 0-1.5 0.4-1.9 1-0.3 0.7-0.5 1.6-0.5 2.6h0.5c0-1 0.2-1.8 0.5-2.3 0.3-0.5 0.7-0.8 1.4-0.8zm2.4 3.6c0-1-0.1-1.9-0.5-2.6-0.4-0.6-1-1-1.9-1v0.5c0.7 0 1.1 0.3 1.5 0.8 0.3 0.5 0.4 1.3 0.4 2.3zm-2.4 3.7c0.9 0 1.5-0.5 1.9-1.1 0.4-0.7 0.5-1.6 0.5-2.6h-0.5c0 1-0.1 1.8-0.4 2.3-0.4 0.6-0.8 0.9-1.5 0.9zm21.4-8.6h0.3v-0.2h-0.3zm0 7.3v0.2h0.3v-0.2zm-3.8 0v-0.3h-0.3v0.3zm0 2.8h-0.2v0.3h0.2zm5.8 0h0.2v-0.3h-0.2zm0 1.4v0.3h0.2v-0.3zm-13.1 0h-0.3v0.3h0.3zm0-1.4v-0.3h-0.3v0.3zm5.8 0v0.2h0.3v-0.2zm0-2.9h0.2v-0.2h-0.2zm-3.9-7.3v-0.3h-0.3v0.3zm1.6 0h0.3v-0.3h-0.3zm0 2.4h-0.2v0.2h0.2zm6.1 0v0.3h0.3v-0.3zm0-2.3v-0.3h-0.3v0.3zm-6.1 5.8h-0.2v0.3h0.2zm6.1 0v0.2h0.3v-0.2zm0-2.2h0.2v-0.2h-0.2zm-6.1 0v-0.3h-0.3v0.3zm7.5-3.7v7.3h0.5v-7.3zm0.2 7h-3.8v0.5h3.8zm-4 0.3v2.8h0.5v-2.8zm0.2 3.1h5.8v-0.5h-5.8zm5.5-0.3v1.4h0.5v-1.4zm0.3 1.2h-13.2v0.5h13.2zm-12.9 0.2v-1.4h-0.5v1.4zm-0.3-1.1h5.8v-0.5h-5.8zm6.1-0.3v-2.8h-0.5v2.8zm-0.3-3.1h-3v0.5h3zm-3 0q-0.3 0-0.5-0.1-0.1-0.1-0.1-0.5h-0.5q0 0.5 0.3 0.8 0.3 0.3 0.8 0.3zm-0.6-0.6v-6.4h-0.5v6.4zm-0.3-6.2h1.6v-0.5h-1.6zm1.4-0.2v2.3h0.5v-2.3zm0.2 2.6h6.1v-0.5h-6.1zm6.4-0.3v-2.3h-0.5v2.3zm-0.3-2.1h1.6v-0.5h-1.6zm-6.1 5.9h6.1v-0.5h-6.1zm6.4-0.3v-2.1h-0.5v2.1zm-0.3-2.4h-6.1v0.5h6.1zm-6.3 0.3v2.1h0.5v-2.1zm10.5 4.8l-0.2-0.2-0.2 0.2 0.2 0.2zm3.6-8.4v-0.2l-0.2-0.1-0.1 0.3zm1.6 0.1l0.2 0.1v-0.3h-0.2zm-1.2 5.3l-0.2-0.1-0.1 0.1 0.1 0.1zm3.3 2.7l0.3 0.1 0.1-0.3h-0.3zm-0.6 1.4l-0.1 0.3 0.2 0.1 0.1-0.3zm-6.5-1c1.4-1.3 2.2-2.5 2.7-3.9 0.5-1.4 0.8-2.9 1-4.7h-0.5c-0.2 1.8-0.5 3.2-1 4.5-0.4 1.3-1.2 2.5-2.5 3.7zm1 0.8l-0.1 0.2 0.1 0.1 0.2-0.2zm8.4-10.1h0.3v-0.3h-0.3zm0 13.4v0.2h0.3v-0.2zm-1.6 0h-0.3v0.2h0.3zm0-7h0.2v-0.3h-0.2zm-4.4 0.1c0.4 0.8 0.8 1.3 1.3 1.8 0.5 0.4 1.3 0.8 2.3 1.1l0.1-0.5c-1-0.3-1.6-0.6-2.1-1-0.5-0.4-0.8-0.9-1.1-1.6zm2.2-1.5v-0.3h-0.2v0.3zm2.1 0v0.2h0.2v-0.2zm0-4.9v-0.2h-0.2v0.2zm4.8-0.1h0.2v-0.3h-0.2zm0 14.2v0.2h0.2v-0.2zm-1.6 0h-0.2v0.2h0.2zm0-14.1v-0.3h-0.2v0.3zm-8.1 8l0.2-0.1-0.2-0.5-0.2 0.4zm0.4-6.7l1.5 0.1 0.1-0.5-1.6-0.1zm1.3-0.1c-0.2 1.9-0.5 3.6-1.1 5.2l0.4 0.2c0.7-1.7 1-3.4 1.2-5.4zm1.1 5.4h-0.2v0.2h0.2zm1.1 2.6l-0.6 1.5 0.5 0.2 0.6-1.5zm-0.3 1.3c-2-0.6-2.9-1.4-3.4-2.5l-0.5 0.2c0.6 1.3 1.7 2.2 3.7 2.8zm-3.8-2.5c-0.5 0.8-1.1 1.5-1.9 2.3l0.3 0.3c0.9-0.7 1.5-1.5 2-2.3zm-1.5 2.2l-1.2-0.9-0.3 0.3 1.1 1zm8.1-9.9v13.3h0.5v-13.3zm0.2 13h-1.6v0.5h1.6zm-1.3 0.3v-7.1h-0.5v7.1zm-0.3-7.3h-2.1v0.5h2.1zm-1.8 0.2v-1.4h-0.5v1.4zm-0.3-1.1h2.1v-0.5h-2.1zm2.4-0.3v-4.8h-0.5v4.8zm-0.3-4.6h1.6v-0.5h-1.6zm4.6-0.4v14.1h0.5v-14.1zm0.2 13.9h-1.6v0.5h1.6zm-1.3 0.2v-14.1h-0.5v14.1zm-0.3-13.9h1.6v-0.5h-1.6zm16.3 12.2v0.2h0.3v-0.2zm-13.1 0h-0.3v0.2h0.3zm0-1.4v-0.2h-0.3v0.2zm3.5 0v0.3h0.3v-0.3zm0-2.6v-0.3h-0.3v0.3zm1.6 0h0.3v-0.3h-0.3zm0 2.7h-0.2v0.2h0.2zm3 0v0.3h0.3v-0.3zm0-2.6v-0.3h-0.3v0.3zm1.6 0h0.3v-0.3h-0.3zm0 2.7h-0.2v0.2h0.2zm3.4 0h0.3v-0.2h-0.3zm-2-6.6c0 0.9-0.2 1.7-0.9 2.3-0.7 0.6-1.8 1.1-3.6 1.1v0.5c1.9 0 3.1-0.5 3.9-1.2 0.9-0.7 1.1-1.7 1.1-2.7zm-4.5-3.4c1.8 0 2.9 0.4 3.6 1 0.7 0.7 0.9 1.5 0.9 2.4h0.5c0-1-0.2-2-1.1-2.7-0.8-0.7-2-1.2-3.9-1.2zm-4.6 3.4c0-0.9 0.2-1.7 0.9-2.4 0.7-0.6 1.8-1 3.7-1v-0.5c-1.9 0-3.2 0.5-4 1.2-0.8 0.7-1.1 1.7-1.1 2.7zm4.6 3.4c-1.9 0-3-0.5-3.7-1.1-0.7-0.6-0.9-1.4-0.9-2.3h-0.5c0 1 0.3 2 1.1 2.7 0.8 0.7 2.1 1.2 4 1.2zm-3.5-3.4c0 0.7 0.2 1.3 0.7 1.8 0.6 0.4 1.4 0.6 2.8 0.6v-0.5c-1.3 0-2.1-0.2-2.5-0.5-0.4-0.3-0.5-0.8-0.5-1.4zm3.5-2.4c-1.4 0-2.2 0.2-2.8 0.6-0.6 0.5-0.7 1.1-0.7 1.8h0.5c0-0.6 0.1-1.1 0.5-1.4 0.4-0.3 1.2-0.5 2.5-0.5zm3.4 2.4c0-0.7-0.1-1.3-0.7-1.8-0.5-0.4-1.4-0.6-2.7-0.6v0.5c1.3 0 2 0.2 2.4 0.5 0.4 0.3 0.5 0.8 0.5 1.4zm-3.4 2.4c1.3 0 2.2-0.2 2.7-0.6 0.6-0.5 0.7-1.1 0.7-1.8h-0.5c0 0.6-0.1 1.1-0.5 1.4-0.4 0.3-1.1 0.5-2.4 0.5zm6.5 5.3h-13.1v0.5h13.1zm-12.8 0.3v-1.4h-0.5v1.4zm-0.3-1.2h3.5v-0.5h-3.5zm3.8-0.2v-2.7h-0.5v2.7zm-0.3-2.4h1.6v-0.5h-1.6zm1.4-0.3v2.7h0.5v-2.7zm0.2 2.9h3v-0.5h-3zm3.3-0.2v-2.7h-0.5v2.7zm-0.3-2.4h1.6v-0.5h-1.6zm1.4-0.3v2.7h0.5v-2.7zm0.2 2.9h3.4v-0.5h-3.4zm3.2-0.2v1.4h0.5v-1.4z"/>
	</g>
	<path class="s9" d="m58.7 298c-0.6 0-0.9-0.3-0.9-0.9v-4.1h1.6v3.6h7.7v1.4zm8-14.5v10.3h-1.6v-10.3zm-10.7 7.8c-0.6 0-0.9-0.3-0.9-0.8v-6.2h6.9v7zm0.7-1.4h3.7v-4.1h-3.7zm14.7 8.1c-0.5 0-0.8-0.3-0.8-0.9v-2.8h7.6v-0.9h-7.6v-1.4h9.2v3.7h-7.6v0.9h8.1v1.4zm10.3-7.2h-13.1v-1.3h13.1zm-10.3-2.5c-0.5 0-0.8-0.3-0.8-0.8v-3.9h9.2v1.5h-7.6v1.8h7.6v1.4zm11.9-2.1v-1.4h5.3v5.1h-3.7v2.5c1.4 0.1 3.2 0 4.5-0.6l0.3 1.4c-1.6 0.6-3.9 0.8-5.6 0.7-0.5-0.1-0.8-0.4-0.8-1v-4.5h3.7v-2.2zm8.6-2.6v13.3h-1.6v-7h-1.2v-1.4h1.2v-4.9zm3.2-0.1v14.1h-1.6v-14.1zm4.4 14.5c-0.5 0-0.8-0.3-0.8-0.9v-2.6h7.6v-0.7h-7.6v-1.4h9.2v3.5h-7.6v0.7h8.1v1.4zm10.3-6.5h-13.1v-1.3h13.1zm-10.4-2.2c-0.5 0-0.8-0.3-0.8-0.9v-2.7h7.6v-0.8h-7.6v-1.3h9.2v3.5h-7.6v0.8h8v1.4zm16.2 4.7v-1.4h9.9c-0.3 1.1-1.7 2.2-3.5 3.2 1 0.6 2.1 0.9 4.1 0.9l-0.2 1.6c-2.4-0.1-4.1-0.8-5.5-1.8-1.6 0.8-3.4 1.3-5 1.7l-0.5-1.4c2.4-0.4 5.4-1.5 7-2.8zm9.7-10.5v3.3h2.2v1.4h-2.2v3.5h-1.6v-8.2zm-11 3.7v-1.4h7c0 1.2-1 2.4-2.3 3.5 0.8 0.5 1.7 0.7 3.1 1l-0.5 1.5c-1.8-0.4-2.7-0.8-3.6-1.7-1.1 0.7-2.2 1.2-3.3 1.6l-0.8-1.3c2.4-0.7 4.4-2 5-3.2zm1.4-3.9c1 0.3 3.8 0.3 4.9 0.3v1.4c-1.1 0-4.1 0-5.3-0.3zm15 14.7c-0.6 0-0.9-0.3-0.9-0.9v-3.7h1.6v3.1h8v1.5zm10.4-6.1h-13.1v-1.5h13.1zm-10.2-2.8c-0.6 0-0.9-0.3-0.9-0.8v-4.4h1.6v3.8h7.6v1.4zm14.8-2.7v-1.4h6.1c-0.2 2.2-1.1 4-2.2 5.5 0.7 1.2 1.5 1.6 2.8 2.1l-0.8 1.5c-1.4-0.6-2.3-1-3.1-2.3q-1.1 1.1-2.2 2l-1.2-1.1c1.8-1.4 3.8-3.3 4.7-6.3zm8.7-2.7v5.1h1.8v-5.3h1.6v14.1h-1.6v-7.3h-1.8v6.7h-1.6v-13.3zm17.1-0.2v14.1h-1.6v-14.1zm-10.5 10.1c-0.6 0-0.9-0.3-0.9-0.9v-8h6.8v8.9zm0.7-1.5h3.6v-6h-3.6zm23.1-8.6v5.7h2.3v1.5h-2.3v6.9h-1.6v-3.6c-3.4 0.7-7.9 0.8-10.2 0.8l-0.2-1.4c1 0 2.5 0 4.1-0.1v-2.5c-2.4-0.2-3.1-1.8-3.1-3.3 0-1.7 0.9-3.4 3.8-3.4 3 0 3.8 1.7 3.8 3.4 0 1.5-0.7 3-2.9 3.3v2.4c1.6-0.1 3.2-0.3 4.7-0.6v-9.1zm-7.2 5.9c1.8 0 2.2-0.7 2.2-1.9 0-1.2-0.4-2-2.2-2-1.8 0-2.2 0.8-2.2 2 0 1.2 0.5 1.9 2.2 1.9zm-81.3 16.1v14.1h-1.6v-14.1zm-11.7 9.7c3.7-0.6 5.3-2.2 5.3-6.2v-1.1h-4.9v-1.4h6.5v2.5c0 4.6-2.1 6.8-6.4 7.6zm24.9-9.5v6.7h-8.5c-0.5 0-0.8-0.4-0.8-0.9v-5.8h1.6v2h6.1v-2zm-7.7 5.2h6.1v-1.8h-6.1zm9.6 4.1h-5.8v4.8h-1.6v-4.8h-5.7v-1.5h13.1zm3.8 5c-0.6 0-0.9-0.3-0.9-0.9v-2.5h7.6v-0.8h-7.6v-1.3h9.2v3.4h-7.6v0.8h8.1v1.3zm10.3-6.5h-13.1v-1.3h13.1zm-10.3-2.2c-0.6 0-0.9-0.3-0.9-0.8v-2.7h7.6v-0.8h-7.6v-1.4h9.2v3.6h-7.6v0.8h8.1v1.3zm17.8 8.7c-0.5 0-0.8-0.3-0.8-0.9v-4.1h8.8v5zm0.8-1.4h5.6v-2.2h-5.6zm7.2-13.1v3.8h2.3v1.5h-2.3v3.6h-1.6v-8.9zm-3 2.8v1.5h-1.7c0.5 0.3 0.9 0.8 0.9 1.5 0 1.5-1.1 2.9-3.4 2.9-2.3 0-3.3-1.3-3.3-2.9 0-0.7 0.3-1.2 0.8-1.5h-1.7v-1.5zm-4.2 4.5c1.3 0 1.8-0.6 1.8-1.5 0-0.9-0.5-1.5-1.8-1.5-1.2 0-1.7 0.6-1.7 1.5 0 0.9 0.5 1.5 1.7 1.5zm-1.9-7.2c1.1 0.4 3.4 0.4 4.6 0.4v1.4c-1.2 0-3.8 0-5.1-0.4zm11.4 8.9c1.8-0.5 2.3-2.3 2.3-4.8v-1.3h-1.5v-1.4h3.1v2.7c0 2.8-0.6 5.1-2.9 5.9zm3.5 1c1.7-0.8 2.4-2.9 2.4-5.6v-1.5h-1.4v-1.4h3v2.9 0.6h1.1v-4.8h1.5v13.3h-1.5v-7h-1.2c-0.3 2-1.2 3.6-2.8 4.5zm9.6-9.9v14.1h-1.6v-14.1z"/>
	<g id="Clip-Path" clip-path="url(#cp3)">
		<g>
			<path class="s10" d="m119.6 240.6c3.9 0 7-3.1 7-7 0-3.8-3.1-7-7-7-3.8 0-7 3.2-7 7 0 3.9 3.2 7 7 7z"/>
			<path class="s10" d="m129.4 243.4l-4.9-4.9"/>
		</g>
	</g>
</svg>