<svg width="22" height="22" viewBox="0 0 22 22" fill="none" xmlns="http://www.w3.org/2000/svg">
<path d="M1 13.3031H4.07878C5.09946 13.3031 6.07833 13.7086 6.80006 14.4303C7.52179 15.152 7.92725 16.1309 7.92725 17.1516" stroke="#FFD95F" stroke-linecap="round" stroke-linejoin="round"/>
<path d="M3.30908 17.1514H11.006C11.8226 17.1514 12.6057 17.4757 13.1831 18.0531C13.7604 18.6305 14.0848 19.4136 14.0848 20.2301C14.0848 20.4343 14.0037 20.6301 13.8594 20.7744C13.715 20.9187 13.5192 20.9998 13.3151 20.9998H1" stroke="#FFD95F" stroke-linecap="round" stroke-linejoin="round"/>
<path d="M13.6996 13.3031L7.542 7.60735C4.18613 4.23609 9.08139 -2.29092 13.6996 2.98919C18.3177 -2.27553 23.2592 4.25148 19.8571 7.60735L13.6996 13.3031Z" stroke="#FFD95F" stroke-linecap="round" stroke-linejoin="round"/>
</svg>
