<svg width="18" height="19" viewBox="0 0 18 19" fill="none" xmlns="http://www.w3.org/2000/svg">
<path d="M15.7692 1H2.23077C1.55103 1 1 1.57308 1 2.28V16.36C1 17.0669 1.55103 17.64 2.23077 17.64H15.7692C16.449 17.64 17 17.0669 17 16.36V2.28C17 1.57308 16.449 1 15.7692 1Z" stroke="#000001" stroke-linecap="round" stroke-linejoin="round"/>
<path d="M1 4.84003H17" stroke="#000001" stroke-linecap="round" stroke-linejoin="round"/>
<path d="M8.99968 9.95997C10.2305 7.39997 12.692 8.67997 12.692 10.6C12.692 13.16 8.99968 14.44 8.99968 14.44C8.99968 14.44 5.30737 13.16 5.30737 10.6C5.30737 8.67997 7.76891 7.39997 8.99968 9.95997Z" stroke="#000001" stroke-linecap="round" stroke-linejoin="round"/>
</svg>
