<svg width="16" height="16" viewBox="0 0 16 16" fill="none" xmlns="http://www.w3.org/2000/svg">
<g clip-path="url(#clip0_73_1313)">
<path d="M14.4459 2.13719L13.4859 4.97147C13.4527 5.03703 13.4355 5.10945 13.4355 5.1829C13.4355 5.25636 13.4527 5.32878 13.4859 5.39433L15.2802 7.79433C15.3317 7.86303 15.3629 7.94486 15.3701 8.03045C15.3773 8.11604 15.3602 8.20193 15.3209 8.27827C15.2815 8.35461 15.2214 8.41832 15.1475 8.46209C15.0736 8.50586 14.9889 8.52793 14.903 8.52576H11.9087C11.8354 8.52792 11.7634 8.54649 11.6981 8.58011C11.6329 8.61373 11.576 8.66155 11.5316 8.72005L9.86303 11.12C9.81409 11.1902 9.74645 11.2452 9.66779 11.2788C9.58914 11.3125 9.50263 11.3234 9.4181 11.3103C9.33358 11.2972 9.25441 11.2606 9.18962 11.2048C9.12483 11.1489 9.07701 11.076 9.0516 10.9943L8.16017 8.13719C8.13983 8.06656 8.1019 8.00226 8.04993 7.95029C7.99796 7.89832 7.93365 7.86039 7.86303 7.84005L5.00588 6.94862C4.92421 6.9232 4.8513 6.87538 4.79545 6.81059C4.73961 6.7458 4.70306 6.66664 4.68996 6.58211C4.67686 6.49758 4.68775 6.41107 4.72137 6.33242C4.755 6.25377 4.81001 6.18613 4.88017 6.13719L7.32588 4.41147C7.38438 4.36712 7.4322 4.31021 7.46582 4.24495C7.49944 4.17968 7.51801 4.10772 7.52017 4.03433V1.04005C7.52336 0.9614 7.5468 0.884911 7.58823 0.817984C7.62966 0.751057 7.68766 0.69596 7.75663 0.658027C7.8256 0.620095 7.90319 0.600613 7.9819 0.601467C8.0606 0.602322 8.13775 0.623483 8.20588 0.662903L10.6059 2.45719C10.6668 2.49951 10.7369 2.52675 10.8104 2.53669C10.8839 2.54662 10.9588 2.53896 11.0287 2.51433L13.863 1.55433C13.9443 1.52576 14.032 1.52075 14.116 1.53986C14.2 1.55898 14.2769 1.60144 14.3378 1.66237C14.3988 1.72329 14.4412 1.80019 14.4604 1.8842C14.4795 1.96821 14.4744 2.05591 14.4459 2.13719V2.13719Z" stroke="#222222" stroke-linecap="round" stroke-linejoin="round"/>
<path d="M8.04557 7.95435L0.571289 15.4286" stroke="#222222" stroke-linecap="round" stroke-linejoin="round"/>
</g>
<defs>
<clipPath id="clip0_73_1313">
<rect width="16" height="16" fill="white"/>
</clipPath>
</defs>
</svg>
